<?xml version="1.0" standalone="no"?>
<!DOCTYPE svg PUBLIC "-//W3C//DTD SVG 20010904//EN"
 "http://www.w3.org/TR/2001/REC-SVG-20010904/DTD/svg10.dtd">
<svg version="1.0" xmlns="http://www.w3.org/2000/svg"
 width="768.000000pt" height="443.000000pt" viewBox="0 0 768.000000 443.000000"
 preserveAspectRatio="xMidYMid meet">

<g transform="translate(0.000000,443.000000) scale(0.100000,-0.100000)"
fill="#000000" stroke="none">
<path d="M3179 4373 c-6 -285 -15 -406 -29 -414 -8 -4 -58 -12 -110 -19 -82
-10 -145 -22 -247 -45 -15 -4 -23 -13 -23 -26 0 -20 4 -21 52 -15 28 4 59 11
69 17 10 5 35 9 55 9 21 0 45 7 55 16 12 11 24 13 41 8 13 -5 43 -9 68 -9 41
0 45 -2 51 -30 l6 -30 6 35 c8 41 27 398 27 494 0 81 -20 89 -21 9z"/>
<path d="M1780 4230 c-14 -4 -42 -5 -62 -3 l-38 6 0 -65 c0 -61 2 -68 35 -102
19 -21 35 -41 35 -46 0 -5 -14 -17 -31 -25 -29 -15 -30 -18 -16 -38 11 -16 22
-21 45 -19 32 4 38 -2 46 -39 2 -13 12 -39 21 -57 10 -20 14 -43 11 -58 -6
-22 -11 -25 -42 -22 -19 1 -38 -3 -42 -9 -4 -7 -39 -15 -77 -19 -87 -8 -109
-22 -65 -40 37 -16 83 -9 106 17 19 22 45 24 62 7 9 -9 17 -7 34 10 20 18 29
20 60 13 20 -5 39 -7 41 -4 3 2 -2 26 -10 54 -13 45 -13 52 1 74 12 18 26 25
49 26 29 0 30 1 10 9 -29 12 -29 34 -2 61 14 14 19 28 15 43 -3 13 1 32 10 45
20 28 11 51 -20 51 -26 0 -77 55 -91 98 -5 18 -47 47 -58 41 -1 -1 -13 -5 -27
-9z m45 -160 c0 -31 -3 -35 -27 -38 -22 -3 -29 2 -34 22 -8 32 12 58 40 54 17
-2 21 -10 21 -38z"/>
<path d="M3305 4232 c-23 -5 -44 -30 -45 -54 0 -21 16 -24 23 -5 7 17 27 -11
27 -39 0 -24 -59 -84 -83 -84 -9 0 -17 -6 -18 -12 0 -7 -2 -31 -4 -53 -8 -77
-6 -78 109 -73 72 3 109 9 127 21 14 9 54 19 90 23 80 7 160 23 176 36 7 6 19
8 27 5 14 -6 134 11 251 34 33 7 78 11 99 11 39 -2 65 17 66 47 0 11 -13 12
-62 7 -35 -4 -80 -12 -100 -17 -27 -7 -44 -6 -60 2 -29 16 -71 13 -108 -6 -37
-19 -70 -19 -98 1 -13 9 -24 14 -26 13 -1 -2 -10 -16 -19 -31 -12 -20 -26 -28
-45 -28 -15 0 -60 -7 -101 -15 -40 -9 -80 -13 -90 -10 -20 7 -81 95 -81 118 0
9 5 19 10 22 29 18 -27 94 -65 87z"/>
<path d="M4210 4085 c0 -9 6 -12 15 -9 8 4 12 10 9 15 -8 14 -24 10 -24 -6z"/>
<path d="M983 4038 c-13 -6 -23 -17 -23 -25 0 -8 -7 -21 -16 -30 -14 -14 -13
-18 12 -44 33 -35 37 -35 74 -8 26 20 32 21 60 9 38 -16 65 1 31 19 -12 7 -21
19 -21 28 0 13 -3 13 -15 3 -12 -10 -15 -10 -15 1 0 13 -47 60 -59 58 -3 0
-16 -5 -28 -11z"/>
<path d="M1158 3983 c7 -3 16 -2 19 1 4 3 -2 6 -13 5 -11 0 -14 -3 -6 -6z"/>
<path d="M2325 3929 c-43 -17 -62 -44 -69 -92 -6 -52 6 -67 41 -49 14 8 28 6
51 -5 29 -14 32 -19 32 -64 0 -38 -4 -52 -20 -61 -11 -7 -20 -21 -20 -30 0
-14 8 -18 39 -18 27 0 49 -8 68 -24 41 -34 63 -21 45 26 -8 18 -19 56 -26 85
-7 29 -21 64 -30 78 -19 29 -15 55 9 55 8 0 15 5 15 10 0 6 -4 10 -9 10 -5 0
-18 15 -29 34 -22 37 -66 58 -97 45z"/>
<path d="M53 3907 l-53 -11 0 -207 0 -207 35 -4 c39 -4 65 6 65 27 0 8 4 16 9
19 15 10 61 -12 68 -31 3 -10 12 -25 20 -35 8 -9 13 -29 11 -45 l-3 -28 -102
-3 c-83 -2 -103 -6 -103 -17 0 -10 10 -15 28 -15 76 -2 136 -71 161 -185 7
-33 22 -82 32 -110 11 -27 19 -61 19 -75 0 -39 38 -174 50 -178 5 -2 10 -10
10 -18 0 -8 6 -17 14 -20 11 -4 13 -18 10 -54 -5 -52 20 -160 37 -160 18 0 27
-44 12 -55 -11 -8 -11 -17 -2 -45 6 -19 12 -40 14 -47 3 -9 12 -10 35 -2 16 6
30 14 30 17 0 4 -7 42 -15 85 -8 43 -15 80 -15 82 0 3 18 9 40 15 26 7 40 17
41 28 2 72 -3 218 -9 224 -4 4 -26 -1 -48 -12 -27 -11 -41 -14 -40 -7 3 24 19
38 56 53 36 15 39 19 42 62 2 28 8 47 17 50 9 3 12 0 8 -10 -8 -23 29 -72 60
-79 46 -11 93 -10 93 2 0 6 -30 42 -67 81 -52 53 -73 68 -89 65 -14 -2 -25 2
-31 13 -6 14 -13 16 -31 9 -19 -7 -22 -15 -22 -69 0 -64 -11 -77 -29 -32 -18
45 -17 231 2 243 5 4 -18 24 -51 45 -34 22 -61 46 -62 53 0 12 3 12 12 3 7 -7
27 -12 45 -12 31 0 33 2 27 28 -3 15 -7 33 -10 40 -2 6 0 12 4 12 4 0 6 17 6
38 -4 88 -2 84 -26 76 -21 -6 -22 -6 -6 17 14 21 23 24 71 22 39 -2 58 1 67
12 13 16 35 21 26 6 -7 -11 65 -12 79 -1 6 4 16 2 22 -5 8 -9 9 -16 3 -20 -6
-3 -10 -20 -10 -38 0 -35 20 -25 23 12 1 11 5 21 10 21 5 0 7 7 3 15 -8 21 24
34 51 20 13 -6 20 -14 17 -18 -3 -3 10 -2 29 3 30 6 36 5 40 -11 6 -24 -5 -31
-37 -23 -35 9 -50 -24 -42 -95 3 -31 8 -73 10 -93 2 -21 9 -44 15 -52 9 -11 9
-19 -1 -35 -9 -16 -10 -23 -1 -32 16 -16 43 -4 43 19 0 12 22 37 55 62 31 24
54 49 51 55 -12 32 -17 103 -8 109 7 4 6 18 -4 41 -16 38 -19 85 -5 85 15 0
30 -24 42 -72 11 -40 10 -49 -5 -72 -18 -29 -14 -94 8 -108 6 -4 11 -13 11
-20 0 -7 14 -14 33 -16 39 -4 53 -29 27 -48 -10 -8 -14 -14 -9 -14 6 0 30 -19
53 -41 23 -23 44 -39 47 -37 2 3 -12 52 -32 109 -37 105 -61 189 -71 244 -2
17 -13 49 -24 73 -11 24 -17 47 -14 53 4 5 -3 23 -15 39 -15 21 -17 30 -8 30
21 -1 70 -49 62 -62 -4 -7 -3 -8 5 -4 6 4 23 -2 37 -13 15 -12 32 -21 39 -21
6 0 22 -11 35 -25 l23 -25 -31 -6 c-17 -3 -33 -12 -36 -20 -14 -36 54 -214 98
-253 14 -14 26 -35 26 -48 0 -29 28 -86 39 -79 4 3 7 -14 7 -37 -1 -46 32
-133 46 -119 4 4 12 36 16 70 9 61 8 62 -15 62 -26 0 -29 9 -10 29 7 8 7 11 1
8 -8 -4 -14 5 -17 26 -6 43 1 52 24 31 30 -27 85 -22 110 10 16 20 29 26 59
26 43 0 70 -21 91 -72 l12 -30 33 38 32 39 24 -22 c29 -28 44 -29 57 -5 10 16
10 15 11 -3 3 -44 10 -61 37 -83 16 -12 27 -30 25 -39 -2 -10 2 -43 9 -75 11
-56 13 -58 30 -42 11 10 19 31 19 50 0 33 -18 84 -29 84 -3 0 -7 10 -7 23 -1
12 -5 32 -9 45 -6 19 -3 24 15 29 19 5 22 11 17 43 l-5 37 30 -14 c27 -14 31
-14 54 8 13 12 24 30 24 38 -1 12 -7 8 -24 -11 -24 -26 -24 -27 -42 -7 -10 11
-25 17 -35 14 -9 -3 -24 1 -33 10 -12 12 -20 14 -35 5 -17 -9 -19 -15 -11 -36
6 -14 10 -36 10 -50 0 -25 0 -25 -25 -7 -13 10 -25 25 -25 34 0 9 -12 29 -26
44 -26 28 -26 29 -6 36 21 8 21 8 3 61 -16 46 -16 55 -4 66 18 18 48 11 48
-10 0 -25 18 -39 55 -45 36 -5 80 -30 80 -44 0 -5 7 -9 15 -9 18 0 37 34 29
54 -3 9 -1 16 5 16 13 0 15 36 2 45 -6 3 -4 17 4 32 9 17 11 31 5 38 -6 7 -7
15 -4 18 4 4 -8 2 -26 -3 -18 -5 -37 -7 -41 -4 -17 10 -9 -33 10 -57 18 -24
18 -24 -8 -26 -16 -1 -37 9 -56 26 -31 30 -65 37 -65 15 0 -7 -5 -16 -11 -19
-7 -5 -8 5 -4 29 8 43 4 44 -29 11 -24 -24 -48 -34 -44 -17 1 4 -6 22 -15 40
-10 18 -17 38 -16 45 2 6 -1 31 -5 53 l-7 42 -112 -5 c-61 -2 -118 -8 -126
-12 -9 -5 -33 -11 -54 -15 -33 -6 -40 -4 -66 24 -28 31 -28 31 -34 10 -5 -21
-9 -22 -74 -15 -69 7 -98 22 -109 57 -4 15 -13 18 -42 16 -35 -3 -38 0 -61 45
-17 35 -29 47 -45 47 -34 0 -37 -9 -15 -43 10 -18 19 -41 19 -53 0 -24 -25
-78 -43 -91 -21 -16 -94 -36 -106 -29 -23 15 -3 94 45 179 21 38 3 34 -41 -10
-35 -35 -39 -37 -49 -19 -28 47 -59 76 -89 80 -18 3 -84 10 -147 16 -63 7
-131 18 -150 25 -49 19 -145 25 -207 12z m442 -187 c60 -27 72 -52 45 -90 -12
-17 -23 -30 -25 -30 -13 0 -94 36 -118 53 -21 14 -27 26 -25 46 2 21 10 27 38
32 19 4 36 7 38 8 2 0 23 -8 47 -19z m827 -116 c-2 -5 -16 -8 -32 -6 -24 3
-32 -2 -40 -22 -11 -31 -11 -31 -61 -5 -51 25 -46 44 13 45 25 1 54 6 64 12
20 12 62 -7 56 -24z m-1009 -97 c11 -7 16 -22 14 -37 -5 -30 -26 -33 -41 -5
-6 10 -17 25 -23 33 -7 7 -13 15 -13 18 0 9 47 3 63 -9z m910 -19 c46 -24 56
-58 33 -103 -13 -25 -13 -24 -30 29 -12 38 -22 53 -31 50 -7 -3 -18 4 -25 15
-9 18 -8 21 10 21 12 0 31 -5 43 -12z m347 -88 c22 -22 25 -36 10 -45 -18 -11
-50 15 -50 40 0 30 13 32 40 5z m-802 -8 c2 -7 -3 -12 -12 -12 -9 0 -16 7 -16
16 0 17 22 14 28 -4z m-401 -38 c-3 -3 -12 -4 -19 -1 -8 3 -5 6 6 6 11 1 17
-2 13 -5z m1209 -56 c1 -16 -1 -28 -5 -28 -13 0 -31 24 -31 43 0 30 32 16 36
-15z m-358 -46 c1 -13 -2 -20 -8 -17 -6 3 -10 1 -10 -5 0 -6 -9 -2 -21 9 -25
23 -19 39 14 37 16 -1 24 -8 25 -24z"/>
<path d="M994 3885 c-4 -10 -20 -15 -50 -15 -24 0 -44 -3 -44 -7 0 -5 20 -18
45 -30 37 -18 50 -20 76 -11 16 6 33 8 36 4 7 -7 43 23 43 36 0 4 -10 8 -23 8
-13 0 -32 7 -43 15 -24 18 -33 19 -40 0z"/>
<path d="M2070 3800 c-8 -5 -32 -10 -53 -10 -26 0 -36 -4 -31 -12 4 -6 -1 -17
-10 -24 -20 -14 -28 -61 -14 -86 13 -27 47 -22 54 7 3 14 12 25 19 25 9 0 12
12 9 42 -4 40 -3 41 11 21 12 -17 13 -34 6 -83 -4 -34 -12 -65 -18 -68 -18
-13 -22 -39 -11 -81 12 -46 16 -48 60 -25 18 9 68 18 125 21 89 6 129 0 201
-28 27 -11 31 11 5 32 -39 31 -60 38 -72 26 -10 -9 -15 -8 -25 6 -8 10 -27 17
-47 17 -58 0 -64 10 -61 93 2 63 0 76 -18 92 -12 11 -21 13 -21 7 -1 -7 -3
-16 -4 -22 -1 -5 -3 -26 -4 -45 -1 -23 -6 -35 -15 -35 -20 0 -29 34 -21 77 10
52 -24 80 -65 53z m135 -219 c8 -14 -24 -41 -49 -41 -32 0 -39 11 -19 32 17
19 58 24 68 9z"/>
<path d="M3574 3748 c-4 -5 -3 -12 0 -15 7 -8 36 4 36 15 0 11 -29 11 -36 0z"/>
<path d="M3416 3666 c3 -8 12 -17 21 -20 11 -5 13 -2 9 10 -3 8 -6 18 -6 20 0
2 -7 4 -15 4 -8 0 -12 -6 -9 -14z"/>
<path d="M3688 3673 c7 -3 16 -2 19 1 4 3 -2 6 -13 5 -11 0 -14 -3 -6 -6z"/>
<path d="M4316 3661 c-10 -15 3 -91 15 -91 17 0 19 24 5 64 -8 23 -16 34 -20
27z"/>
<path d="M2595 3649 c-4 -5 0 -25 9 -44 9 -18 19 -47 22 -64 10 -49 31 -38 28
13 -4 69 -40 127 -59 95z"/>
<path d="M4060 3650 c0 -5 7 -10 15 -10 8 0 15 5 15 10 0 6 -7 10 -15 10 -8 0
-15 -4 -15 -10z"/>
<path d="M4146 3621 c-11 -18 12 -74 38 -93 23 -17 24 -17 31 9 5 22 0 33 -28
61 -22 22 -37 30 -41 23z"/>
<path d="M5878 3623 c7 -3 16 -2 19 1 4 3 -2 6 -13 5 -11 0 -14 -3 -6 -6z"/>
<path d="M7508 3613 c7 -3 16 -2 19 1 4 3 -2 6 -13 5 -11 0 -14 -3 -6 -6z"/>
<path d="M3250 3581 c0 -17 27 -37 37 -28 7 8 -9 35 -23 41 -9 3 -14 -1 -14
-13z"/>
<path d="M3560 3524 c0 -8 5 -12 10 -9 6 3 10 10 10 16 0 5 -4 9 -10 9 -5 0
-10 -7 -10 -16z"/>
<path d="M3615 3530 c3 -5 13 -10 21 -10 8 0 12 5 9 10 -3 6 -13 10 -21 10 -8
0 -12 -4 -9 -10z"/>
<path d="M5145 3529 c-12 -19 5 -23 22 -6 16 16 16 17 1 17 -9 0 -20 -5 -23
-11z"/>
<path d="M3207 3523 c-3 -5 -1 -18 4 -30 6 -16 17 -23 34 -23 l27 0 -24 29
c-24 31 -34 36 -41 24z"/>
<path d="M5270 3502 c0 -18 71 -82 90 -82 15 0 41 -27 44 -46 1 -8 31 -46 66
-85 44 -47 71 -69 87 -69 13 0 23 4 23 9 0 7 -92 101 -216 221 -3 2 -10 -2
-15 -10 -8 -12 -9 -11 -5 5 7 25 -22 64 -52 70 -16 3 -22 -1 -22 -13z m65 -42
c3 -5 1 -10 -4 -10 -6 0 -11 5 -11 10 0 6 2 10 4 10 3 0 8 -4 11 -10z"/>
<path d="M2362 3482 c-7 -5 -49 -7 -93 -4 l-81 5 27 -43 c22 -35 25 -47 16
-62 -18 -28 -13 -54 14 -79 15 -13 39 -49 55 -80 l29 -57 52 4 c61 4 64 6 50
32 -6 12 -11 31 -11 44 0 13 -4 29 -9 37 -7 11 -11 9 -21 -8 -7 -14 -8 -27 -2
-34 10 -14 -20 -48 -34 -38 -39 28 26 153 81 159 17 2 34 7 38 12 17 15 -5 52
-39 66 -31 13 -39 24 -35 47 1 9 -21 9 -37 -1z"/>
<path d="M4578 3452 c-12 -5 -14 -12 -9 -21 7 -11 15 -11 45 -1 20 6 36 16 36
21 0 10 -47 11 -72 1z"/>
<path d="M3360 3430 c0 -5 5 -10 10 -10 6 0 10 5 10 10 0 6 -4 10 -10 10 -5 0
-10 -4 -10 -10z"/>
<path d="M2054 3396 l-39 -33 14 -64 c7 -38 21 -70 32 -80 12 -10 22 -34 24
-57 4 -44 27 -95 58 -129 18 -20 21 -21 32 -7 12 17 55 12 55 -7 0 -5 14 -9
32 -9 29 0 30 1 15 18 -10 10 -17 27 -17 38 0 26 -47 124 -72 151 -14 15 -28
21 -43 17 -15 -4 -24 0 -28 10 -7 18 -1 57 10 65 13 10 8 87 -6 105 -18 22
-22 21 -67 -18z m136 -275 c0 -3 -5 -13 -10 -21 -12 -19 -35 2 -27 24 6 15 37
12 37 -3z"/>
<path d="M2625 3370 c3 -65 14 -86 39 -77 19 7 21 48 4 65 -7 7 -12 24 -13 39
0 18 -6 29 -16 31 -14 3 -16 -6 -14 -58z"/>
<path d="M3233 3407 c3 -9 2 -19 -3 -22 -15 -9 -12 -25 5 -25 18 0 21 45 3 56
-8 5 -9 2 -5 -9z"/>
<path d="M4407 3414 c-4 -4 -4 -11 -1 -15 8 -14 31 -10 38 6 5 15 -24 22 -37
9z"/>
<path d="M4490 3410 c-18 -12 -2 -12 25 0 13 6 15 9 5 9 -8 0 -22 -4 -30 -9z"/>
<path d="M5772 3398 c-7 -7 -12 -23 -12 -37 1 -24 2 -24 16 8 16 37 14 47 -4
29z"/>
<path d="M428 3378 c-23 -41 -19 -65 12 -78 20 -8 26 -17 23 -31 -7 -24 14
-50 33 -42 8 3 21 -1 30 -8 14 -11 18 -10 30 6 21 28 18 33 -23 37 -30 2 -38
7 -38 23 0 14 6 19 18 17 16 -3 17 -1 6 20 -7 13 -13 31 -14 41 -4 40 -57 50
-77 15z"/>
<path d="M3460 3390 c0 -5 5 -10 11 -10 5 0 7 5 4 10 -3 6 -8 10 -11 10 -2 0
-4 -4 -4 -10z"/>
<path d="M3005 3360 c-3 -5 -1 -28 5 -50 6 -22 7 -47 3 -55 -5 -8 -7 -33 -5
-55 3 -32 8 -40 21 -38 9 2 16 13 16 28 0 14 6 35 13 48 19 34 -2 132 -28 132
-10 0 -22 -4 -25 -10z"/>
<path d="M7070 3360 c0 -6 7 -10 15 -10 8 0 15 2 15 4 0 2 -7 6 -15 10 -8 3
-15 1 -15 -4z"/>
<path d="M3380 3350 c0 -5 5 -10 11 -10 5 0 7 5 4 10 -3 6 -8 10 -11 10 -2 0
-4 -4 -4 -10z"/>
<path d="M3994 3326 c-111 -25 -124 -30 -124 -52 0 -8 -5 -12 -10 -9 -6 4 -8
11 -5 16 4 5 1 9 -4 9 -6 0 -11 -4 -11 -9 0 -4 -10 -6 -23 -4 -54 11 -117 -48
-117 -110 0 -25 3 -27 28 -21 37 9 112 56 112 72 0 6 5 12 11 12 7 0 8 -13 2
-42 -4 -24 -7 -81 -7 -128 1 -47 2 -119 3 -160 1 -74 2 -76 39 -108 20 -18 48
-35 62 -39 44 -11 185 -80 200 -98 12 -14 12 -18 -1 -26 -27 -17 -52 -9 -123
43 -39 29 -89 58 -111 66 -22 7 -45 18 -52 23 -19 17 -27 -10 -33 -116 l-5
-100 -100 -28 c-310 -85 -278 -79 -295 -58 -15 19 -100 40 -100 24 0 -4 7 -17
15 -27 22 -29 20 -32 -34 -50 -60 -19 -91 -20 -91 -3 0 6 -5 4 -11 -5 -5 -10
-14 -18 -18 -18 -6 0 -22 211 -22 303 0 22 -28 22 -77 1 -40 -17 -39 -19 33
-41 l30 -9 -2 -79 c-2 -44 -10 -97 -18 -117 -8 -21 -11 -38 -7 -38 4 0 -1 -5
-10 -11 -10 -5 -18 -16 -18 -23 0 -11 -107 -52 -115 -44 -2 2 -10 26 -19 53
l-16 50 3 -57 c3 -49 1 -58 -14 -58 -9 0 -19 10 -22 23 -3 12 -10 39 -15 59
-7 25 -6 38 1 41 7 2 7 23 -2 68 -17 92 -20 99 -37 92 -7 -3 -14 0 -14 5 0 6
8 13 18 16 9 3 -1 3 -22 1 -22 -2 -44 -9 -50 -15 -8 -8 -6 -9 5 -5 14 5 18 -4
23 -52 4 -32 11 -71 16 -88 15 -54 19 -165 6 -165 -7 0 -13 6 -14 13 0 6 -22
74 -48 150 -37 111 -50 137 -65 137 -23 0 -23 3 1 -95 11 -44 20 -96 20 -116
0 -20 7 -53 16 -74 8 -20 13 -39 11 -41 -2 -2 -18 -7 -35 -10 -29 -6 -32 -4
-32 18 0 13 5 29 11 35 13 13 -2 48 -25 56 -8 3 -27 33 -42 66 -14 34 -31 61
-36 61 -5 0 -8 6 -5 13 2 6 -1 21 -6 32 -10 19 -12 18 -17 -10 l-6 -30 -12 39
c-14 48 -36 65 -86 66 -34 0 -46 7 -87 51 -27 27 -49 55 -49 60 0 6 -15 24
-33 40 -31 30 -31 31 -12 42 11 7 40 33 65 58 48 49 112 92 144 96 31 5 32 13
3 13 -28 0 -37 14 -14 23 6 3 -1 6 -18 6 -35 1 -155 -20 -281 -48 -49 -11
-135 -30 -191 -42 -57 -13 -108 -26 -114 -30 -6 -4 -13 -38 -15 -75 -2 -38 -7
-102 -12 -142 l-8 -74 31 -16 30 -16 -32 -9 c-26 -8 -33 -15 -33 -36 0 -14 7
-39 16 -56 8 -16 17 -50 20 -75 l6 -45 -51 55 c-110 121 -121 130 -152 130
-30 0 -103 32 -114 50 -3 5 0 10 7 10 36 1 39 16 14 71 l-24 54 -1 -57 c-1
-46 -4 -58 -17 -58 -12 0 -10 -7 10 -31 28 -33 34 -51 38 -114 3 -36 6 -41 43
-54 45 -17 205 -118 205 -130 0 -5 11 -6 25 -3 14 2 22 9 19 14 -3 5 3 16 15
24 17 12 19 19 11 34 -6 10 -11 47 -13 82 l-2 63 30 -1 c82 -3 160 -19 176
-35 9 -9 20 -36 24 -59 6 -33 10 -40 23 -34 156 65 199 59 317 -45 48 -42 72
-89 50 -97 -8 -3 -29 11 -50 35 -44 48 -120 87 -172 86 l-38 0 4 -43 c1 -25
-3 -52 -12 -65 -8 -12 -13 -30 -11 -40 1 -9 -2 -14 -7 -11 -6 4 -8 37 -3 85
l7 79 -50 0 c-27 0 -54 -5 -61 -12 -6 -6 -15 -8 -19 -4 -4 4 -1 11 7 16 24 16
-5 12 -50 -6 -34 -14 -38 -18 -25 -28 10 -7 17 -33 19 -81 3 -38 5 -73 5 -77
1 -4 13 -14 29 -22 l27 -14 -26 -10 c-51 -20 -110 -33 -119 -27 -6 3 -10 2
-10 -3 0 -6 -12 -13 -26 -16 -21 -6 -31 -1 -50 21 -13 15 -24 32 -24 36 0 5
-5 5 -10 2 -6 -3 -13 1 -16 9 -3 9 -22 20 -43 25 -46 11 -170 11 -177 0 -5 -8
9 -13 28 -10 8 1 54 -62 51 -69 -2 -3 6 -5 16 -5 10 0 25 -6 33 -12 8 -7 18
-10 21 -6 4 3 15 -2 26 -11 17 -16 20 -16 28 -2 8 14 12 12 31 -14 26 -35 20
-54 -14 -47 -28 5 -46 -13 -44 -45 4 -48 0 -54 -18 -33 -9 12 -32 30 -49 40
-18 11 -33 23 -33 28 0 5 -7 7 -15 3 -8 -3 -21 2 -30 10 -9 10 -23 13 -36 9
-16 -5 -18 -9 -9 -15 7 -4 9 -13 6 -19 -4 -6 0 -14 8 -17 17 -6 22 -35 9 -48
-10 -10 -10 -39 -1 -47 5 -3 11 -27 14 -55 l7 -49 -27 24 c-14 14 -26 31 -26
39 0 8 -6 12 -15 9 -8 -4 -17 -2 -20 3 -4 6 1 10 9 10 9 0 16 7 16 15 0 9 -6
12 -17 8 -15 -5 -14 -3 2 10 20 16 19 16 -9 17 -24 0 -27 2 -16 15 9 10 9 15
1 15 -6 0 -11 5 -11 10 0 6 7 10 15 10 20 0 10 71 -13 87 -37 25 -62 48 -62
57 0 4 -15 21 -32 37 -30 25 -34 26 -43 11 -5 -9 -16 -17 -24 -17 -8 0 -16 -6
-19 -12 -2 -7 2 -13 8 -13 7 0 10 -7 6 -15 -3 -8 -1 -15 4 -15 5 0 7 -7 4 -15
-4 -8 -1 -15 6 -15 6 0 8 -5 4 -11 -3 -6 0 -15 7 -20 12 -8 12 -11 -1 -20 -12
-8 -9 -10 13 -6 15 2 30 0 33 -4 3 -5 -4 -9 -15 -9 -21 0 -35 -13 -24 -23 3
-4 13 -2 22 3 14 7 20 0 34 -41 10 -27 22 -49 27 -49 6 0 10 -17 10 -38 0 -22
7 -53 16 -70 8 -18 13 -36 10 -41 -4 -5 -2 -12 3 -16 6 -3 8 -12 4 -20 -3 -8
-1 -15 5 -15 5 0 14 -18 20 -40 5 -22 8 -40 5 -40 -2 0 -16 14 -30 30 -14 17
-30 29 -36 27 -6 -2 -22 9 -35 25 -13 15 -28 26 -32 23 -5 -3 -12 1 -17 8 -4
8 -21 22 -38 33 -16 10 -34 24 -38 31 -4 7 -12 13 -18 13 -5 0 -22 11 -37 25
-15 14 -32 25 -38 25 -6 0 -16 11 -22 25 -6 14 -19 25 -27 25 -9 0 -27 12 -40
26 -13 14 -28 23 -34 20 -10 -7 -37 32 -33 47 1 4 -5 7 -14 7 -11 0 -14 -6 -8
-22 4 -13 12 -26 18 -30 8 -6 8 -8 -1 -8 -6 0 -9 -9 -6 -20 4 -13 0 -20 -9
-20 -10 0 -13 8 -10 30 3 24 1 30 -15 30 -16 0 -19 -6 -16 -37 l2 -38 -11 33
c-9 27 -16 33 -34 29 -17 -3 -24 2 -29 20 -7 29 -42 66 -55 58 -6 -4 -13 1
-16 9 -3 9 -14 16 -24 16 -22 0 -37 37 -22 52 8 8 19 6 36 -6 31 -20 56 -21
56 -1 0 26 86 15 119 -16 11 -11 27 -19 36 -19 8 0 15 -7 15 -15 0 -8 4 -15
10 -15 5 0 7 -7 4 -15 -4 -8 -1 -15 6 -15 7 0 10 -7 7 -15 -5 -11 0 -13 21 -9
57 11 67 10 70 -13 2 -13 -1 -23 -7 -23 -6 0 -11 -4 -11 -10 0 -5 5 -10 10
-10 6 0 22 -12 35 -26 23 -25 30 -24 26 0 -1 5 4 13 11 17 10 7 9 9 -3 9 -11
0 -23 22 -38 75 -19 63 -26 75 -44 75 -20 0 -20 0 -1 15 15 12 16 16 6 23 -8
5 -13 11 -11 13 4 8 -38 94 -52 105 -8 6 -27 14 -44 18 -16 4 -35 16 -43 27
-10 14 -25 19 -60 19 -63 0 -170 16 -224 33 -24 8 -70 20 -103 27 -33 7 -74
21 -91 32 -65 38 -98 11 -54 -45 11 -14 20 -37 20 -51 0 -55 42 -312 55 -344
9 -18 22 -32 32 -32 17 -1 17 -2 -1 -15 -17 -13 -17 -19 -6 -77 96 -513 214
-1206 225 -1318 10 -108 36 -274 45 -285 4 -5 11 -38 15 -72 l7 -63 63 0 c35
0 66 4 69 9 3 5 14 7 24 4 16 -4 173 50 262 92 l35 16 -44 -7 c-25 -3 -60 -15
-78 -25 -18 -10 -36 -19 -41 -20 -4 -1 -17 -5 -30 -10 -13 -5 -27 -9 -32 -9
-12 0 0 32 14 42 7 5 4 8 -6 8 -10 0 -18 -3 -18 -7 0 -5 -12 -9 -27 -10 -15 0
-32 -8 -39 -17 -6 -9 -21 -16 -33 -16 -17 0 -21 6 -21 31 0 17 -4 39 -10 49
-13 24 11 50 39 43 13 -3 31 6 53 27 18 18 42 39 53 46 22 14 134 37 240 49
76 9 115 28 115 58 0 58 -13 95 -34 101 l-21 6 22 19 c21 18 22 19 4 35 -12
11 -27 14 -50 10 -25 -5 -36 -2 -52 15 -11 11 -31 21 -44 21 -16 0 -25 6 -25
15 0 8 -9 15 -20 15 -29 0 -25 17 5 22 36 7 169 -3 175 -13 3 -5 16 -10 28
-11 19 -3 27 7 48 57 14 33 28 66 31 74 5 11 0 13 -23 7 -27 -6 -28 -5 -10 8
10 9 23 17 29 19 19 6 -4 27 -29 27 -35 0 -21 17 26 31 31 10 46 22 66 58 15
25 50 75 79 111 57 71 61 80 75 166 7 39 24 81 56 134 43 70 52 79 98 96 28
10 55 17 60 16 54 -17 62 -14 91 32 41 65 93 98 161 104 60 5 92 -6 113 -39 8
-14 9 -24 2 -33 -6 -6 -13 -47 -16 -90 -6 -62 -4 -77 6 -74 9 3 19 49 30 142
16 131 41 226 59 226 7 0 40 94 40 114 0 3 -12 6 -26 6 -33 0 -22 17 16 25 22
5 36 18 50 46 37 71 86 83 133 31 20 -22 47 -111 47 -158 0 -21 10 -39 31 -60
17 -16 49 -53 71 -81 22 -29 47 -53 54 -53 8 0 14 -4 14 -9 0 -5 17 -4 40 1
22 6 40 15 40 20 0 11 85 48 112 48 27 0 20 32 -10 45 -12 5 -22 15 -22 21 0
6 -41 55 -91 110 -50 54 -111 121 -135 148 -25 27 -43 51 -40 53 2 3 35 -28
73 -69 37 -40 87 -93 111 -118 24 -25 62 -67 85 -95 85 -105 128 -143 168
-150 22 -4 42 -12 45 -17 5 -7 -2 -9 -20 -4 -14 3 -47 9 -72 13 -29 4 -41 9
-32 14 8 5 9 12 3 18 -17 17 -125 -4 -187 -36 l-58 -30 31 -41 c29 -40 29 -41
10 -52 -18 -9 -24 -5 -46 30 -14 22 -23 45 -20 50 8 14 -1 12 -33 -4 -15 -7
-43 -17 -62 -20 -31 -6 -28 -4 18 18 28 14 52 27 52 30 0 2 -6 11 -14 19 -8 8
-38 44 -65 81 -49 65 -51 66 -51 36 0 -17 4 -36 10 -43 58 -72 62 -77 46 -77
-9 0 -25 15 -37 33 l-20 32 7 -165 c3 -91 11 -176 18 -190 8 -17 34 -34 90
-57 44 -18 83 -37 86 -43 4 -6 19 8 35 32 15 24 36 53 47 64 19 21 19 22 -6
59 -28 40 -33 65 -15 65 6 0 9 7 5 15 -3 8 0 14 7 12 6 -1 13 7 15 19 5 31 62
54 135 53 66 -1 66 -1 -43 -33 -30 -9 -65 -25 -78 -36 -24 -20 -23 -29 13 -74
14 -19 15 -19 35 -1 12 11 41 20 73 23 46 4 57 1 85 -23 39 -32 43 -83 12
-130 -24 -36 -25 -45 -5 -45 24 0 18 -19 -10 -32 -19 -8 -22 -14 -14 -24 12
-15 2 -57 -11 -49 -5 3 -14 -20 -20 -50 -7 -32 -16 -53 -22 -49 -5 3 -8 -2 -7
-12 4 -30 -11 -98 -37 -170 -13 -37 -24 -69 -24 -71 0 -2 -5 -1 -12 3 -7 4 -8
3 -4 -4 6 -11 -18 -101 -45 -170 -5 -12 -18 -59 -29 -103 -26 -102 -46 -160
-76 -227 -13 -29 -24 -57 -24 -63 0 -6 -5 -7 -11 -3 -8 4 -9 0 -4 -15 3 -11 1
-29 -5 -38 -10 -16 -11 -15 -6 5 5 28 -2 52 -16 52 -5 0 -6 -10 -3 -22 5 -17
4 -19 -4 -9 -5 8 -8 36 -6 62 3 38 0 49 -13 52 -13 4 -14 5 -2 6 9 0 24 17 34
36 11 19 22 35 26 35 12 0 18 47 9 62 -11 18 -45 -4 -41 -26 2 -11 -7 -18 -28
-22 -16 -4 -30 -13 -30 -21 0 -7 -6 -24 -14 -36 -7 -12 -16 -34 -20 -49 -5
-21 -2 -28 15 -33 12 -4 17 -10 12 -14 -11 -6 -29 -70 -24 -86 1 -5 3 -18 4
-27 1 -16 12 -18 84 -18 76 0 90 3 184 45 56 25 105 45 110 45 11 0 291 120
304 130 6 5 30 16 55 26 25 9 51 22 58 27 7 5 40 20 75 32 121 45 132 49 179
69 26 12 47 24 48 27 0 4 -16 17 -35 30 -19 13 -35 28 -35 32 0 9 11 3 52 -26
l27 -20 58 31 c56 29 58 32 65 78 4 27 5 57 2 66 -7 24 -72 60 -96 52 -17 -5
-18 -4 -6 15 7 12 20 21 30 21 9 0 25 3 35 6 13 4 14 3 5 -4 -11 -7 -8 -14 14
-31 33 -26 39 -26 103 0 l51 22 0 66 c0 64 -1 68 -30 85 -69 40 -80 58 -80
129 0 64 1 67 28 73 15 4 32 11 38 15 25 20 72 12 124 -21 l52 -33 55 18 c30
11 57 25 60 32 4 10 9 9 20 -7 8 -11 18 -20 24 -20 15 0 94 -54 95 -65 1 -5 4
-20 8 -31 8 -23 18 -22 102 4 56 17 78 33 63 43 -8 5 -25 9 -39 9 -19 0 -22 3
-11 9 10 6 27 3 50 -8 33 -16 41 -16 85 -3 32 9 50 20 53 33 3 10 9 19 14 19
5 0 9 5 9 11 0 5 -4 7 -10 4 -15 -9 -12 4 4 21 22 21 25 18 28 -28 l3 -43 40
1 c375 9 376 9 442 43 34 17 68 31 75 31 17 0 202 91 206 101 2 5 9 9 17 9 16
0 32 19 37 45 2 13 -2 19 -11 17 -7 -1 -18 4 -25 13 -6 9 -27 18 -46 22 -19 3
-43 9 -52 14 -9 5 -26 9 -38 9 -11 0 -23 7 -26 15 -4 8 -24 25 -45 37 -39 22
-47 36 -30 54 5 5 12 24 16 42 5 25 3 32 -9 32 -12 0 -16 -10 -16 -36 0 -30
-2 -34 -14 -25 -11 9 -15 7 -19 -12 -4 -12 -4 -32 -1 -43 6 -23 -17 -47 -41
-42 -9 2 -29 32 -45 68 -16 36 -30 61 -30 56 0 -5 -10 4 -22 20 -12 16 -25 31
-29 34 -3 3 -27 31 -53 63 -37 45 -45 61 -36 72 8 10 7 16 -5 22 -12 7 -3 13
39 22 31 7 56 16 56 21 0 12 -72 19 -92 8 -11 -5 -30 -3 -54 7 -20 8 -41 12
-48 8 -6 -4 -5 0 2 9 11 14 10 18 -8 28 -11 6 -25 8 -30 5 -5 -3 -12 0 -16 6
-4 8 -3 9 4 5 19 -12 14 3 -9 27 -19 19 -21 19 -15 3 4 -13 -5 -9 -32 15 -21
19 -36 38 -34 43 3 5 -2 7 -11 3 -29 -11 -106 93 -121 164 -3 14 -28 50 -55
80 -28 29 -48 60 -46 67 2 6 -3 12 -12 12 -23 0 -73 50 -73 73 0 10 -9 21 -20
24 -11 3 -20 9 -20 14 0 5 -7 9 -15 9 -8 0 -15 3 -15 8 0 4 -14 16 -30 27 -45
30 -84 135 -70 186 7 23 5 39 -5 60 -19 36 -19 40 1 32 15 -5 16 -1 10 33 -10
52 -66 226 -77 238 -6 6 -14 4 -21 -6 -28 -34 -97 -88 -102 -80 -7 12 31 81
65 117 l29 31 -14 69 c-12 62 -60 169 -102 230 -8 11 -14 32 -14 47 0 15 -5
30 -10 33 -6 4 -8 11 -5 16 9 14 -29 10 -141 -15z m80 -52 c25 -10 19 -23 -20
-39 -47 -19 -54 -19 -54 3 0 10 12 23 28 29 15 6 28 11 29 12 1 1 8 -2 17 -5z
m-2070 -490 c7 -19 -1 -34 -18 -34 -9 0 -16 -21 -20 -60 -4 -33 -11 -62 -15
-65 -5 -3 -14 23 -20 56 -8 50 -8 66 5 90 16 32 58 40 68 13z m136 -118 c-1
-21 -1 -21 -15 -2 -21 27 -20 53 0 36 8 -7 15 -22 15 -34z m-182 -135 c3 -8
-1 -12 -9 -9 -7 2 -15 10 -17 17 -3 8 1 12 9 9 7 -2 15 -10 17 -17z m2102 -21
c11 -7 2 -10 -33 -10 -30 0 -46 4 -42 10 8 13 55 13 75 0z m47 -6 c-3 -3 -12
-4 -19 -1 -8 3 -5 6 6 6 11 1 17 -2 13 -5z m-77 -34 c0 -5 -6 -10 -14 -10 -8
0 -21 -3 -30 -6 -9 -3 -16 -1 -16 4 0 10 19 18 48 21 6 0 12 -3 12 -9z m-279
-60 c11 -31 29 -41 29 -15 0 8 4 15 10 15 6 0 6 -10 -1 -27 -7 -19 -6 -28 2
-33 13 -9 3 -70 -12 -70 -5 0 -14 -10 -19 -22 -9 -23 -9 -23 -14 25 -1 10 -86
30 -86 20 0 -2 11 -21 25 -43 14 -22 25 -44 25 -49 0 -6 11 -22 24 -36 14 -15
27 -36 29 -48 2 -12 5 5 7 38 l2 60 10 -50 c13 -61 13 -61 33 -42 9 10 15 33
15 61 0 59 14 59 29 1 6 -25 15 -43 20 -41 5 3 12 -11 16 -32 4 -20 11 -43 17
-49 6 -7 8 -21 6 -31 -3 -11 3 -30 13 -43 10 -13 19 -30 19 -36 0 -15 9 -16
29 -4 9 6 10 11 2 15 -6 4 -11 13 -11 19 1 18 30 -24 30 -42 0 -9 16 -54 35
-100 19 -47 33 -86 31 -88 -7 -7 -62 102 -64 125 -1 26 -19 52 -34 52 -6 0 -8
-10 -4 -22 3 -13 9 -34 12 -48 6 -25 6 -25 -10 -5 -17 20 -17 20 -11 -2 3 -12
3 -39 -1 -59 -6 -34 -8 -36 -20 -19 -8 10 -14 27 -14 37 0 10 -4 18 -10 18
-13 0 -12 -10 5 -40 8 -14 14 -36 15 -49 0 -20 -2 -21 -15 -11 -8 7 -15 19
-15 26 0 8 -4 14 -10 14 -5 0 -10 7 -10 17 0 9 -3 14 -6 10 -3 -3 3 -33 15
-66 24 -69 29 -150 9 -133 -7 6 -22 33 -33 61 -11 28 -25 51 -32 51 -7 0 -17
9 -23 19 -16 30 -12 36 10 16 24 -22 24 -23 0 45 -10 30 -23 55 -28 55 -6 0
-14 3 -18 8 -4 4 -2 7 4 7 7 0 12 5 12 11 0 6 -8 8 -17 5 -20 -6 -97 64 -138
127 -29 45 -30 47 -9 47 24 0 11 24 -17 30 -14 4 -37 26 -57 55 -28 44 -33 47
-38 29 -4 -15 -11 -20 -25 -17 -10 3 -19 1 -19 -5 0 -6 -12 -10 -27 -9 -16 1
-28 8 -27 15 1 6 2 19 3 28 0 9 7 14 14 11 6 -2 11 -11 9 -21 -2 -9 4 -16 13
-16 8 0 15 9 15 21 0 11 4 18 9 15 5 -3 14 1 21 9 10 12 6 22 -19 54 -33 42
-39 61 -18 61 8 0 13 -10 13 -22 -1 -18 5 -24 27 -26 25 -3 40 -22 17 -22 -21
0 -9 -20 15 -26 14 -3 25 -9 25 -13 0 -4 23 -35 51 -70 31 -39 48 -69 45 -78
-4 -9 9 -36 32 -67 21 -28 44 -61 51 -73 24 -47 48 -18 36 44 -6 34 -8 36 -20
20 -17 -24 -26 -21 -19 7 4 16 1 25 -10 29 -25 10 -19 36 9 43 14 3 25 12 25
20 0 19 -16 18 -24 -1 -6 -16 -36 -21 -36 -6 0 6 10 17 22 25 22 16 22 17 5
44 -10 15 -21 34 -23 43 -3 9 -17 22 -30 29 -13 8 -24 17 -24 22 0 17 -53 88
-66 88 -17 0 -25 15 -18 34 7 17 29 10 60 -21 20 -21 74 -24 74 -5 0 14 26 16
35 2 4 -6 11 -8 16 -5 17 11 9 43 -14 62 -13 10 -22 24 -19 31 7 21 23 13 33
-18z m141 -2 c-7 -7 -12 -8 -12 -2 0 14 12 26 19 19 2 -3 -1 -11 -7 -17z
m-252 -12 c0 -11 -19 -15 -25 -6 -3 5 1 10 9 10 9 0 16 -2 16 -4z m495 -30
l40 -34 -32 0 c-23 1 -33 6 -33 16 0 9 -7 24 -17 34 -27 30 -1 20 42 -16z
m-178 5 c-3 -15 1 -21 17 -23 13 -2 22 -11 24 -27 3 -19 0 -22 -13 -17 -9 3
-21 6 -26 6 -5 0 -9 6 -9 13 0 6 -7 24 -14 40 -14 25 -13 27 6 27 15 0 19 -5
15 -19z m-47 -23 c-1 -30 -2 -31 -14 -15 -21 27 -28 20 -11 -13 17 -34 4 -41
-18 -10 -21 30 -10 70 19 70 20 0 24 -5 24 -32z m290 0 c0 -6 -7 -5 -15 2 -8
7 -15 17 -15 22 0 6 7 5 15 -2 8 -7 15 -17 15 -22z m-760 -17 c0 -10 -50 -25
-58 -17 -3 3 6 10 19 15 31 13 39 13 39 2z m537 -81 c25 -33 51 -69 57 -80 6
-10 35 -53 64 -95 29 -41 49 -75 43 -75 -11 0 -79 89 -174 228 -66 95 -59 110
10 22z m-651 -20 c15 -38 30 -67 35 -65 4 3 5 -4 2 -16 -4 -13 -8 -16 -13 -10
-3 7 -13 9 -22 6 -10 -4 -30 11 -58 45 -23 27 -49 50 -56 50 -8 0 -14 5 -14
10 0 6 5 10 11 10 5 0 7 5 4 10 -10 17 1 13 62 -18 31 -16 35 -15 23 7 -10 20
-13 41 -6 41 2 0 17 -31 32 -70z m-131 -5 c26 -42 40 -54 56 -52 12 1 24 -4
26 -10 3 -8 -4 -13 -16 -13 -24 0 -26 -7 -8 -29 27 -32 197 -332 197 -346 0
-5 -7 0 -16 11 -8 10 -12 13 -9 6 4 -7 8 -24 10 -37 1 -13 11 -37 21 -52 10
-15 22 -37 25 -48 3 -11 11 -19 18 -17 7 1 10 -2 6 -8 -4 -6 5 -31 19 -56 14
-26 26 -49 26 -53 -1 -3 -21 17 -46 44 -75 83 -29 6 75 -124 50 -63 91 -119
91 -123 0 -5 9 -18 19 -30 11 -11 25 -42 31 -69 7 -29 20 -54 30 -59 10 -6 22
-20 26 -32 4 -13 20 -35 35 -49 29 -27 38 -49 19 -49 -5 0 -10 5 -10 10 0 6
-7 10 -16 10 -8 0 -12 4 -9 10 10 16 -28 59 -52 60 -23 0 -32 15 -13 22 6 2
-6 25 -25 52 -19 27 -37 57 -40 67 -4 12 -12 16 -22 12 -13 -5 -15 -2 -11 15
3 12 1 20 -4 19 -6 -1 -42 54 -80 123 -38 69 -100 175 -137 235 -37 61 -78
127 -90 148 -75 125 32 -93 133 -272 20 -35 35 -65 33 -67 -7 -7 -66 83 -96
147 -45 96 -126 224 -142 224 -9 0 -14 11 -15 30 0 17 -5 40 -12 52 -7 12 -12
31 -12 43 0 11 -17 39 -38 63 -21 23 -51 65 -66 92 l-28 50 26 -30 c32 -38 33
-23 1 34 -38 66 -32 91 23 86 12 -1 22 2 22 7 0 17 11 6 45 -47z m185 29 c0
-8 -4 -12 -10 -9 -5 3 -10 13 -10 21 0 8 5 12 10 9 6 -3 10 -13 10 -21z m582
-52 c26 -37 69 -102 94 -144 26 -43 51 -78 55 -78 5 0 26 6 46 14 21 8 72 20
115 27 74 12 76 13 67 37 -7 17 -5 27 6 38 8 9 20 25 26 36 15 28 21 17 10
-18 -29 -91 -24 -99 43 -65 48 25 77 18 46 -11 -23 -21 -18 -33 15 -41 13 -3
9 -5 -12 -6 -26 -1 -33 -5 -33 -22 0 -11 4 -28 9 -37 9 -18 11 -17 -69 -21
-14 -1 -52 1 -85 4 -39 5 -71 2 -90 -6 -16 -7 -35 -11 -42 -10 -13 2 -44 -25
-62 -55 -10 -16 -10 -15 -5 9 4 17 2 27 -6 27 -7 0 -6 6 4 16 21 21 20 30 -1
13 -24 -19 -33 -32 -27 -41 3 -4 -2 -5 -9 -2 -21 8 -29 44 -12 50 8 3 21 16
29 29 15 22 14 27 -17 72 -89 133 -157 246 -157 261 0 9 12 -6 62 -76z m-72
48 c0 -5 -4 -10 -9 -10 -6 0 -13 5 -16 10 -3 6 1 10 9 10 9 0 16 -4 16 -10z
m194 -43 c14 -21 26 -44 26 -50 0 -7 4 -17 9 -22 16 -17 51 -85 51 -98 -1 -7
-8 1 -17 17 -8 17 -28 47 -44 68 -15 22 -31 52 -34 68 -4 17 -11 32 -16 35 -5
4 -9 11 -9 17 0 14 3 11 34 -35z m-1030 8 c9 -13 16 -27 16 -31 0 -10 -30 17
-41 38 -15 27 6 22 25 -7z m1231 -15 c-3 -5 -13 -10 -21 -10 -8 0 -12 5 -9 10
3 6 13 10 21 10 8 0 12 -4 9 -10z m-465 -43 c0 -5 -4 -5 -10 -2 -5 3 -10 14
-10 23 0 15 2 15 10 2 5 -8 10 -19 10 -23z m-858 -10 c-6 -7 -35 -21 -64 -31
-29 -11 -58 -23 -65 -28 -7 -6 -18 -8 -25 -5 -7 2 5 12 28 21 22 9 56 25 75
35 42 23 66 27 51 8z m598 -42 c10 -16 15 -33 13 -37 -6 -12 -43 -10 -43 2 0
6 -7 10 -15 10 -13 0 -13 -4 3 -27 11 -16 38 -58 61 -95 56 -88 62 -93 103
-79 29 10 34 9 50 -11 24 -31 23 -45 -1 -24 -13 11 -27 15 -40 11 -26 -8 -27
-27 -1 -50 27 -24 100 -138 105 -164 6 -33 38 -82 51 -77 7 3 10 -3 8 -12 -4
-18 22 -59 32 -50 3 4 0 17 -7 30 -11 20 -11 22 3 10 29 -24 28 -50 -3 -73
-18 -12 -27 -15 -24 -7 3 8 -13 43 -36 78 -23 36 -51 84 -61 107 -10 23 -23
45 -28 48 -5 3 -7 13 -4 23 5 13 4 14 -4 3 -8 -11 -13 -8 -26 15 -8 16 -15 25
-16 21 0 -5 16 -38 36 -73 20 -35 34 -69 32 -75 -2 -5 -37 35 -78 90 -55 73
-80 99 -92 95 -19 -6 -34 11 -18 21 18 11 11 29 -32 85 -34 45 -108 200 -108
226 0 3 11 -1 25 -10 28 -18 39 -21 30 -6 -3 6 -1 10 4 10 6 0 11 -5 11 -11 0
-6 6 -9 13 -6 6 2 11 12 9 21 -5 29 29 15 48 -19z m-210 5 c6 -11 8 -20 6 -20
-3 0 -10 9 -16 20 -6 11 -8 20 -6 20 3 0 10 -9 16 -20z m960 -4 c0 -3 -4 -8
-10 -11 -5 -3 -10 -1 -10 4 0 6 5 11 10 11 6 0 10 -2 10 -4z m-1647 -57 c9
-17 15 -35 12 -39 -8 -13 -35 -1 -35 15 0 7 -10 19 -22 27 -12 8 -18 19 -15
25 11 18 41 4 60 -28z m297 26 c0 -9 -9 -15 -25 -15 -24 0 -32 10 -18 23 12
13 43 7 43 -8z m430 -18 c0 -5 -4 -5 -10 -2 -5 3 -10 14 -10 23 0 15 2 15 10
2 5 -8 10 -19 10 -23z m-1520 13 c0 -5 -2 -10 -4 -10 -3 0 -8 5 -11 10 -3 6
-1 10 4 10 6 0 11 -4 11 -10z m1082 -63 c8 -16 5 -15 -21 4 -17 12 -31 26 -31
31 0 4 -3 7 -7 7 -20 -3 -27 2 -14 10 15 9 55 -20 73 -52z m-1069 28 c4 -8 2
-17 -2 -20 -5 -2 -11 4 -14 15 -6 23 8 27 16 5z m467 -5 c0 -5 -4 -10 -10 -10
-5 0 -10 5 -10 10 0 6 5 10 10 10 6 0 10 -4 10 -10z m817 -66 c-4 -15 -7 -13
-18 14 -7 17 -17 32 -21 32 -4 0 -8 6 -8 12 0 7 12 1 26 -13 16 -16 24 -34 21
-45z m-706 35 c53 -26 44 -35 -19 -18 -35 8 -49 16 -45 26 7 18 17 17 64 -8z
m-1031 -3 c0 -3 -4 -8 -10 -11 -5 -3 -10 -1 -10 4 0 6 5 11 10 11 6 0 10 -2
10 -4z m100 -10 c0 -11 -19 -15 -25 -6 -3 5 1 10 9 10 9 0 16 -2 16 -4z m1057
-2 c-3 -3 -12 -4 -19 -1 -8 3 -5 6 6 6 11 1 17 -2 13 -5z m510 -232 c54 -65
100 -119 103 -122 3 -3 24 -27 45 -55 22 -27 44 -53 50 -57 5 -4 6 -11 1 -15
-4 -4 -17 6 -29 22 -38 52 -257 307 -331 384 l-71 74 67 -57 c37 -32 111 -110
165 -174z m-443 203 c25 -19 9 -19 -24 0 -14 8 -19 14 -10 14 8 0 24 -6 34
-14z m-1498 -20 c1 -14 -2 -25 -6 -25 -10 0 -20 37 -12 44 11 12 17 5 18 -19z
m384 21 c0 -3 -4 -8 -10 -11 -5 -3 -10 -1 -10 4 0 6 5 11 10 11 6 0 10 -2 10
-4z m565 -16 c-3 -5 -10 -10 -16 -10 -5 0 -9 5 -9 10 0 6 7 10 16 10 8 0 12
-4 9 -10z m270 -22 c-4 -18 -11 -37 -15 -43 -4 -5 -13 -34 -20 -63 -14 -62
-31 -78 -26 -25 4 39 15 73 43 130 20 42 27 42 18 1z m724 -41 c23 -34 76
-103 118 -154 72 -84 81 -92 115 -92 20 -1 40 -6 43 -12 5 -7 -4 -9 -26 -7
-31 3 -34 1 -31 -22 3 -22 -4 -18 -48 30 -28 30 -76 84 -107 120 -31 36 -82
92 -112 124 -38 40 -47 54 -28 42 l28 -17 -18 27 c-10 16 -12 25 -5 21 7 -5
12 -3 12 3 0 20 18 1 59 -63z m1502 48 c-1 -9 -91 -76 -91 -67 0 14 17 33 51
56 32 23 41 25 40 11z m-3056 -5 c3 -5 1 -10 -4 -10 -6 0 -11 5 -11 10 0 6 2
10 4 10 3 0 8 -4 11 -10z m1931 -52 c14 -27 23 -52 21 -54 -2 -2 -17 22 -33
55 -17 33 -26 57 -22 55 5 -3 20 -28 34 -56z m-1146 32 c0 -5 -7 -10 -15 -10
-8 0 -15 5 -15 10 0 6 7 10 15 10 8 0 15 -4 15 -10z m1845 -60 c-3 -6 -10 -10
-16 -10 -10 0 -12 33 -2 44 9 9 26 -22 18 -34z m-2016 -27 c23 -32 41 -64 41
-70 0 -7 14 -42 31 -78 43 -92 30 -104 -16 -15 -64 125 -105 208 -105 214 0
14 11 3 49 -51z m804 21 c27 -37 15 -39 -18 -4 -18 19 -24 30 -14 30 8 0 22
-12 32 -26z m1475 1 c-3 -3 -9 2 -12 12 -6 14 -5 15 5 6 7 -7 10 -15 7 -18z
m-3602 -32 c1 -24 -1 -32 -7 -22 -10 16 -12 76 -2 66 3 -4 7 -23 9 -44z m297
17 c3 -11 1 -20 -4 -20 -5 0 -9 4 -9 9 0 5 -3 17 -7 27 -4 11 -3 15 4 11 6 -4
13 -16 16 -27z m3367 -6 c0 -2 -7 -4 -15 -4 -8 0 -15 4 -15 10 0 5 7 7 15 4 8
-4 15 -8 15 -10z m-719 -11 c13 -16 12 -17 -3 -4 -17 13 -22 21 -14 21 2 0 10
-8 17 -17z m679 -1 c0 -9 -9 -23 -20 -30 -23 -14 -26 -2 -8 28 16 25 28 26 28
2z m126 -74 c-7 -5 -5 -8 6 -8 9 0 20 -5 24 -12 5 -7 2 -9 -7 -4 -8 4 -5 0 6
-9 11 -9 20 -19 19 -23 -1 -4 7 -15 17 -24 11 -10 19 -13 19 -8 0 6 5 10 11
10 8 0 8 -4 0 -13 -8 -11 -5 -19 12 -35 13 -12 27 -19 31 -15 4 4 4 -1 0 -11
-5 -13 -4 -17 4 -12 6 3 14 1 18 -5 4 -8 3 -9 -4 -5 -18 11 -14 -5 6 -29 9
-12 4 -7 -13 11 -57 60 -92 104 -87 109 3 3 3 5 -1 5 -3 0 -17 -19 -31 -42
-20 -33 -26 -39 -31 -25 -4 9 2 31 14 50 18 29 19 36 7 46 -8 7 -22 28 -31 47
-9 19 -24 38 -33 41 -32 12 -44 25 -30 34 9 6 25 -4 49 -29 24 -24 33 -40 25
-44z m-3541 63 c3 -5 1 -12 -5 -16 -5 -3 -10 1 -10 9 0 18 6 21 15 7z m3549
-6 c11 -8 16 -18 12 -22 -3 -4 -16 3 -28 15 -25 25 -13 29 16 7z m-1070 -63
c-8 -7 -14 -20 -14 -28 0 -26 -31 -14 -41 16 -6 17 -15 30 -21 30 -5 0 -6 4
-3 10 3 5 17 -2 30 -18 l23 -27 7 39 c8 38 8 38 20 16 10 -19 10 -26 -1 -38z
m-2629 28 c3 -5 1 -10 -4 -10 -6 0 -11 5 -11 10 0 6 2 10 4 10 3 0 8 -4 11
-10z m155 6 c0 -3 -4 -8 -10 -11 -5 -3 -10 -1 -10 4 0 6 5 11 10 11 6 0 10 -2
10 -4z m3330 -6 c0 -5 -2 -10 -4 -10 -3 0 -8 5 -11 10 -3 6 -1 10 4 10 6 0 11
-4 11 -10z m174 -6 c7 -19 -24 -47 -37 -34 -10 9 9 50 22 50 5 0 12 -7 15 -16z
m141 -34 c-25 -26 -31 -28 -43 -16 -8 8 -11 19 -8 25 11 17 26 13 19 -5 -3 -9
6 -4 21 11 37 37 47 22 11 -15z m-3748 8 c-3 -8 -6 -5 -6 6 -1 11 2 17 5 13 3
-3 4 -12 1 -19z m658 12 c3 -5 1 -10 -4 -10 -6 0 -11 5 -11 10 0 6 2 10 4 10
3 0 8 -4 11 -10z m2444 -50 c0 -8 -6 0 -14 19 -8 18 -15 36 -15 40 1 13 29
-45 29 -59z m159 34 c7 -14 9 -32 4 -39 -6 -12 -13 -10 -37 10 -29 24 -29 25
-11 40 27 20 31 19 44 -11z m-2484 -14 c18 0 26 -33 19 -76 l-6 -34 -27 20
c-26 19 -28 19 -23 2 3 -12 -1 -19 -11 -19 -8 0 -13 4 -10 9 3 4 1 24 -5 43
-5 21 -6 35 0 35 5 0 9 -8 9 -17 0 -14 3 -13 16 5 9 13 13 31 9 45 -5 19 -4
20 5 5 6 -10 17 -18 24 -18z m-714 4 c0 -8 -5 -12 -10 -9 -6 4 -8 11 -5 16 9
14 15 11 15 -7z m3370 -15 c0 -6 -4 -7 -10 -4 -5 3 -10 11 -10 16 0 6 5 7 10
4 6 -3 10 -11 10 -16z m-1985 1 c3 -5 1 -10 -4 -10 -6 0 -11 5 -11 10 0 6 2
10 4 10 3 0 8 -4 11 -10z m-1177 -26 c2 -13 -5 -24 -20 -31 -31 -14 -48 -6
-48 22 0 38 63 46 68 9z m-198 6 c0 -5 -2 -10 -4 -10 -3 0 -8 5 -11 10 -3 6
-1 10 4 10 6 0 11 -4 11 -10z m3013 -54 c-3 -10 0 -22 7 -26 8 -5 6 -9 -7 -12
-16 -4 -18 2 -20 51 -2 53 -1 55 12 31 8 -14 12 -33 8 -44z m-2398 44 c-3 -5
-10 -10 -16 -10 -5 0 -9 5 -9 10 0 6 7 10 16 10 8 0 12 -4 9 -10z m2817 -34
c-9 -19 -20 -32 -24 -29 -10 5 19 63 32 63 5 0 2 -15 -8 -34z m-1569 17 c-7
-2 -19 -2 -25 0 -7 3 -2 5 12 5 14 0 19 -2 13 -5z m-1904 -46 c-1 -31 -1 -31
-9 -7 -11 36 -11 52 0 45 6 -3 10 -21 9 -38z m678 28 c4 -4 2 -5 -6 0 -11 6
-13 3 -9 -13 4 -12 2 -25 -3 -28 -5 -3 -9 1 -9 10 0 8 -3 21 -6 29 -6 17 19
18 33 2z m337 9 c12 -5 13 -10 5 -25 -11 -21 -26 -24 -48 -10 -12 8 -12 12 -2
25 15 18 22 19 45 10z m1862 -22 c-9 -2 -13 -9 -9 -20 6 -15 5 -15 -11 -3 -9
8 -21 22 -26 31 -8 15 -5 16 26 6 19 -6 28 -12 20 -14z m514 7 c0 -6 -4 -7
-10 -4 -5 3 -10 11 -10 16 0 6 5 7 10 4 6 -3 10 -11 10 -16z m-3293 -11 c-3
-8 -6 -5 -6 6 -1 11 2 17 5 13 3 -3 4 -12 1 -19z m3163 12 c0 -5 -23 -10 -51
-10 -31 0 -48 4 -44 10 3 6 26 10 51 10 24 0 44 -4 44 -10z m-122 -12 c-5 -16
-48 -24 -48 -10 0 11 17 20 38 21 8 1 12 -5 10 -11z m-2700 -16 c2 -7 8 -10
12 -7 5 3 14 -4 20 -15 6 -11 21 -20 33 -21 l22 0 -23 -10 c-13 -5 -20 -13
-17 -19 4 -7 13 -7 26 0 16 9 21 7 29 -15 6 -15 10 -30 10 -35 0 -5 5 -10 11
-12 13 -4 20 -88 8 -88 -5 0 -9 5 -9 10 0 6 -9 10 -21 10 -16 0 -19 -5 -15
-22 3 -13 -2 -6 -12 14 -9 21 -24 38 -32 38 -13 0 -13 1 0 10 13 9 12 12 -4
25 -11 8 -14 15 -8 15 7 0 12 5 12 10 0 6 -7 10 -16 10 -14 0 -14 3 -4 16 8 8
9 14 4 13 -5 -1 -17 -1 -28 0 -16 1 -16 3 5 19 l22 19 -24 -2 c-23 -2 -37 13
-38 42 -1 15 32 10 37 -5z m1892 -39 c30 -32 67 -73 84 -92 l31 -34 -33 19
c-18 10 -45 35 -59 54 -14 19 -42 52 -62 73 -19 20 -30 37 -25 37 6 0 35 -26
64 -57z m282 43 c10 0 20 -7 23 -14 4 -11 0 -13 -17 -8 -13 3 -30 6 -39 6 -9
0 -20 7 -23 16 -5 12 -1 14 17 8 12 -4 30 -8 39 -8z m-1776 -31 c-2 -7 -2 -16
1 -19 10 -9 10 -56 1 -56 -4 0 -8 7 -8 15 0 8 -4 15 -10 15 -5 0 -10 7 -10 15
0 8 -4 15 -9 15 -5 0 -7 8 -4 19 3 13 11 17 24 14 11 -3 18 -11 15 -18z m1564
10 c22 -12 22 -14 5 -15 -16 0 -12 -8 23 -43 23 -23 42 -46 42 -51 0 -4 21
-37 46 -72 26 -36 44 -67 42 -70 -6 -5 -124 135 -128 151 -1 6 -17 31 -36 56
-46 63 -44 73 6 44z m1190 -52 c0 -10 -19 -20 -20 -10 -1 1 -3 20 -5 42 l-5
40 15 -30 c8 -16 14 -36 15 -42z m-3621 -29 c1 -24 -4 -33 -19 -37 -25 -6 -27
-27 -2 -27 14 0 14 -2 3 -9 -8 -5 -11 -16 -8 -25 3 -8 2 -18 -2 -20 -5 -3 -13
20 -20 51 -13 66 -13 74 -3 71 23 -5 38 15 35 50 -2 36 -2 36 6 7 5 -16 9 -44
10 -61z m3521 71 c-7 -9 -15 -13 -17 -11 -7 7 7 26 19 26 6 0 6 -6 -2 -15z
m-765 -6 c4 -6 5 -12 2 -15 -7 -7 -37 7 -37 17 0 13 27 11 35 -2z m-2461 -21
c-3 -4 1 -8 8 -8 7 0 1 -12 -15 -25 -15 -13 -34 -22 -42 -19 -8 3 -31 0 -52
-7 -50 -17 -63 -19 -63 -9 0 4 -9 10 -20 13 -14 4 -20 13 -20 34 0 19 3 24 9
15 4 -8 17 -13 27 -12 42 5 56 0 50 -16 -4 -10 -1 -14 6 -11 7 2 12 13 10 23
-3 18 -3 18 12 -1 12 -16 15 -17 16 -4 0 24 21 39 51 37 15 -1 25 -6 23 -10z
m881 -33 c0 -13 -8 -21 -24 -23 -32 -5 -47 12 -30 32 19 22 54 16 54 -9z
m-505 5 c0 -5 -4 -10 -10 -10 -5 0 -10 5 -10 10 0 6 5 10 10 10 6 0 10 -4 10
-10z m133 -26 c17 4 25 -1 34 -21 14 -30 11 -38 -11 -30 -9 4 -13 12 -10 20 3
8 -2 14 -11 14 -12 0 -15 -6 -10 -24 4 -19 1 -23 -17 -23 -17 0 -19 3 -9 9 7
5 10 14 7 20 -4 6 -12 9 -17 6 -5 -4 -9 -1 -9 4 0 6 5 11 11 11 6 0 8 9 4 23
-5 20 -5 20 5 4 8 -12 19 -17 33 -13z m2789 -21 c-10 -28 -10 -28 -9 10 0 24
4 34 10 28 6 -6 5 -20 -1 -38z m-1302 -43 c0 -16 -15 -12 -35 10 -10 11 -15
20 -10 20 4 0 0 12 -10 28 -13 21 -9 19 19 -10 20 -21 36 -42 36 -48z m1555
50 c10 -11 16 -20 13 -20 -3 0 -13 9 -23 20 -10 11 -16 20 -13 20 3 0 13 -9
23 -20z m-2895 -37 c0 -7 -4 -13 -9 -13 -10 0 -21 24 -21 48 0 13 3 12 15 -4
8 -10 15 -25 15 -31z m1928 7 c-2 -7 -10 1 -17 16 -12 27 -11 28 4 12 10 -9
16 -21 13 -28z m-1977 21 c-8 -5 -11 -16 -6 -30 4 -12 2 -21 -4 -21 -6 0 -11
9 -11 20 0 11 -5 20 -11 20 -5 0 -7 5 -4 10 3 6 16 10 28 10 16 0 18 -3 8 -9z
m1532 -57 c27 -36 46 -68 44 -70 -2 -3 -30 27 -61 66 -31 38 -51 70 -44 70 7
0 35 -30 61 -66z m-1693 46 c0 -5 -2 -10 -4 -10 -3 0 -8 5 -11 10 -3 6 -1 10
4 10 6 0 11 -4 11 -10z m-460 -20 c0 -5 -2 -10 -4 -10 -3 0 -8 5 -11 10 -3 6
-1 10 4 10 6 0 11 -4 11 -10z m750 -10 c0 -5 -2 -10 -4 -10 -3 0 -8 5 -11 10
-3 6 -1 10 4 10 6 0 11 -4 11 -10z m-165 -10 c-3 -5 -10 -10 -16 -10 -5 0 -9
5 -9 10 0 6 7 10 16 10 8 0 12 -4 9 -10z m1639 -30 c20 -22 36 -45 36 -52 0
-7 -3 -8 -9 -2 -60 66 -82 94 -73 94 5 0 26 -18 46 -40z m424 1 c22 -38 32
-136 13 -115 -15 15 -61 136 -55 145 10 17 20 9 42 -30z m-2118 8 c0 -6 -4 -7
-10 -4 -5 3 -10 11 -10 16 0 6 5 7 10 4 6 -3 10 -11 10 -16z m-520 1 c0 -5 -2
-10 -4 -10 -3 0 -8 5 -11 10 -3 6 -1 10 4 10 6 0 11 -4 11 -10z m624 -12 c10
-39 7 -44 -9 -14 -17 33 -18 36 -6 36 5 0 11 -10 15 -22z m2544 -8 c20 -11 45
-26 54 -32 13 -10 25 -10 50 -1 76 27 94 26 150 -14 66 -46 64 -43 67 -101 1
-35 8 -51 24 -64 22 -17 21 -17 -10 -6 -28 10 -38 10 -60 -4 -45 -26 -65 -25
-125 9 -51 30 -61 32 -103 24 -25 -5 -54 -16 -64 -25 -16 -15 -20 -15 -30 -2
-7 8 -33 27 -57 41 -39 23 -49 25 -76 16 -42 -15 -50 -4 -10 11 19 7 32 19 31
28 -1 8 1 22 4 30 3 8 7 28 9 44 2 23 11 32 48 47 57 23 54 23 98 -1z m-3158
-10 c0 -5 -2 -10 -4 -10 -3 0 -8 5 -11 10 -3 6 -1 10 4 10 6 0 11 -4 11 -10z
m320 -20 c0 -5 -4 -10 -10 -10 -5 0 -10 5 -10 10 0 6 5 10 10 10 6 0 10 -4 10
-10z m-210 -30 c0 -5 -2 -10 -4 -10 -3 0 -8 5 -11 10 -3 6 -1 10 4 10 6 0 11
-4 11 -10z m270 0 c0 -5 -2 -10 -4 -10 -3 0 -8 5 -11 10 -3 6 -1 10 4 10 6 0
11 -4 11 -10z m2397 -12 c-3 -8 -6 -5 -6 6 -1 11 2 17 5 13 3 -3 4 -12 1 -19z
m-2447 -4 c0 -8 -4 -12 -10 -9 -5 3 -10 10 -10 16 0 5 5 9 10 9 6 0 10 -7 10
-16z m190 -14 c0 -5 -5 -10 -11 -10 -5 0 -7 5 -4 10 3 6 8 10 11 10 2 0 4 -4
4 -10z m2269 -50 c1 -13 0 -13 -9 0 -5 8 -9 24 -9 35 l0 20 9 -20 c5 -11 9
-27 9 -35z m166 41 c-6 -5 -21 -12 -35 -15 -24 -7 -24 -6 -6 8 21 17 57 23 41
7z m770 -5 c-11 -8 -24 -12 -29 -8 -5 3 -1 9 10 13 31 12 39 10 19 -5z m-3385
-6 c0 -5 -2 -10 -4 -10 -3 0 -8 5 -11 10 -3 6 -1 10 4 10 6 0 11 -4 11 -10z
m200 -9 c0 -5 -7 -12 -16 -15 -24 -9 -28 -7 -14 9 14 17 30 20 30 6z m1050
-15 c0 -7 -10 -16 -22 -19 -13 -2 -31 -8 -40 -12 -11 -4 -18 -3 -18 4 0 7 15
18 33 26 41 18 47 18 47 1z m474 -2 c8 -21 8 -20 -31 -29 -38 -8 -43 5 -10 28
28 20 34 20 41 1z m-404 -43 c0 -9 -24 -21 -43 -21 -6 0 -2 7 9 15 22 17 34
19 34 6z m2565 -51 c5 -8 -75 -83 -82 -76 -2 2 6 24 18 48 17 35 26 44 41 40
10 -2 20 -8 23 -12z m-4498 -32 c-3 -8 -6 -5 -6 6 -1 11 2 17 5 13 3 -3 4 -12
1 -19z m4058 13 c-6 -11 25 -31 47 -31 10 0 9 3 -2 11 -12 9 -12 10 3 5 10 -3
25 -6 33 -6 21 0 17 -18 -8 -31 -18 -10 -30 -7 -75 17 -29 16 -53 32 -53 37 0
4 14 7 31 7 16 0 28 -4 24 -9z m-4137 -44 c29 -44 28 -51 -8 -32 -44 23 -61
65 -26 65 6 0 21 -15 34 -33z m146 12 c-3 -5 -10 -7 -15 -3 -5 3 -7 10 -3 15
3 5 10 7 15 3 5 -3 7 -10 3 -15z m3915 -44 c0 -14 -5 -10 -18 15 -14 25 -16
37 -8 42 12 8 25 -20 26 -57z m-1051 20 c-3 -3 -9 2 -12 12 -6 14 -5 15 5 6 7
-7 10 -15 7 -18z m709 -32 c-3 -10 -5 -4 -5 12 0 17 2 24 5 18 2 -7 2 -21 0
-30z m-3420 21 c-3 -3 -12 -4 -19 -1 -8 3 -5 6 6 6 11 1 17 -2 13 -5z m3423
-49 c0 -6 -88 -45 -98 -44 -4 0 16 11 43 24 58 28 55 27 55 20z m-3710 -39 c0
-3 -4 -8 -10 -11 -5 -3 -10 -1 -10 4 0 6 5 11 10 11 6 0 10 -2 10 -4z m2365
-16 c3 -6 -1 -7 -9 -4 -18 7 -21 14 -7 14 6 0 13 -4 16 -10z m1302 -4 c-15 -7
-24 -16 -20 -20 4 -4 -1 -4 -12 0 -17 7 -16 9 10 20 17 7 35 13 40 13 6 0 -2
-6 -18 -13z m-1247 -146 c0 -5 -4 -10 -10 -10 -5 0 -10 5 -10 10 0 6 5 10 10
10 6 0 10 -4 10 -10z m-1870 -35 c0 -11 -63 -36 -83 -33 -17 3 -12 7 23 20 49
18 60 20 60 13z m20 -59 c0 -2 -11 -6 -25 -8 -13 -3 -22 -1 -19 3 5 9 44 13
44 5z m-410 -40 c0 -3 -4 -8 -10 -11 -5 -3 -10 -1 -10 4 0 6 5 11 10 11 6 0
10 -2 10 -4z m42 -28 c-7 -7 -45 -25 -84 -39 -47 -16 -72 -31 -74 -42 -3 -21
-5 -21 42 0 22 9 46 18 54 19 21 4 84 22 155 45 67 22 79 23 70 10 -3 -5 -27
-16 -53 -24 -202 -64 -258 -83 -264 -92 -5 -7 -8 -7 -8 0 0 6 -5 3 -10 -5 -8
-11 -9 -9 -5 10 3 14 1 38 -4 53 -9 23 -8 27 7 27 9 1 49 12 87 25 82 28 105
31 87 13z m398 -8 c0 -5 -10 -10 -22 -10 -19 0 -20 2 -8 10 19 13 30 13 30 0z
m2160 -97 c13 -21 24 -54 26 -73 2 -27 0 -31 -7 -17 -13 22 -24 22 -62 -5 -18
-13 -33 -22 -34 -20 -13 11 -23 -5 -24 -35 l-1 -38 -11 42 c-14 48 -34 74 -22
28 11 -42 14 -75 8 -75 -10 0 -59 59 -80 98 -27 48 -25 50 71 86 81 31 72 29
74 11 1 -8 3 -22 4 -30 2 -17 1 -17 22 -9 14 5 14 9 1 34 -11 22 -12 30 -2 33
6 3 13 6 14 6 0 1 11 -16 23 -36z m-2510 17 c0 -5 -4 -10 -10 -10 -5 0 -10 5
-10 10 0 6 5 10 10 10 6 0 10 -4 10 -10z m-30 -10 c0 -12 -40 -33 -48 -25 -4
4 2 13 12 21 23 16 36 18 36 4z m65 -20 c-8 -13 -56 -34 -137 -60 -42 -13 -68
-27 -68 -36 0 -20 20 -18 112 16 82 30 131 39 113 21 -6 -6 -49 -23 -97 -39
-47 -16 -101 -38 -119 -50 -19 -11 -36 -19 -38 -16 -3 3 -4 20 -3 39 2 19 -2
35 -8 35 -5 0 -10 7 -10 15 0 10 10 15 29 15 16 0 48 8 72 19 73 31 83 34 114
38 17 3 32 7 34 9 8 8 12 4 6 -6z m2542 -26 c-3 -3 -12 -4 -19 -1 -8 3 -5 6 6
6 11 1 17 -2 13 -5z m-310 -36 c0 -7 3 -29 8 -48 l7 -35 -23 30 c-12 17 -24
32 -26 34 -17 23 -3 -49 22 -111 4 -11 3 -18 -3 -18 -6 0 -27 28 -46 63 l-36
62 38 17 c46 20 59 22 59 6z m-2267 -62 c0 -3 -4 -8 -10 -11 -5 -3 -10 -1 -10
4 0 6 5 11 10 11 6 0 10 -2 10 -4z m86 -22 c-11 -8 -27 -14 -36 -14 -8 0 -24
-6 -35 -14 -11 -7 -36 -17 -55 -21 -19 -4 -56 -17 -82 -30 -42 -19 -48 -20
-48 -6 0 11 16 21 48 30 26 8 52 18 57 22 16 12 159 57 165 52 3 -3 -4 -11
-14 -19z m-116 6 c0 -5 -4 -10 -10 -10 -5 0 -10 5 -10 10 0 6 5 10 10 10 6 0
10 -4 10 -10z m2340 -19 c0 -11 -4 -23 -10 -26 -6 -4 -10 5 -10 19 0 14 5 26
10 26 6 0 10 -9 10 -19z m-2171 -25 c-6 -6 -103 -44 -198 -77 -82 -28 -102
-29 -100 -6 0 9 2 9 5 0 5 -12 58 4 139 42 57 26 110 44 134 44 13 1 22 -1 20
-3z m2144 -36 c-5 -18 -33 -30 -33 -14 0 5 29 32 37 34 0 0 -1 -9 -4 -20z
m-596 -36 c-3 -3 -12 -4 -19 -1 -8 3 -5 6 6 6 11 1 17 -2 13 -5z m485 -19 c0
-5 -5 -11 -11 -13 -6 -2 -11 4 -11 13 0 9 5 15 11 13 6 -2 11 -8 11 -13z"/>
<path d="M3540 2186 c0 -2 7 -9 15 -16 12 -10 15 -10 15 4 0 9 -7 16 -15 16
-8 0 -15 -2 -15 -4z"/>
<path d="M3832 2110 c0 -14 2 -19 5 -12 2 6 2 18 0 25 -3 6 -5 1 -5 -13z"/>
<path d="M3285 2200 c16 -31 45 -41 45 -16 0 14 -36 46 -52 46 -5 0 -2 -13 7
-30z"/>
<path d="M4370 2002 c0 -4 -15 -6 -33 -4 -18 2 -60 -6 -92 -18 l-60 -21 82 5
c47 3 95 1 113 -6 37 -13 40 -11 33 25 -4 18 -12 27 -24 27 -11 0 -19 -4 -19
-8z"/>
<path d="M1483 1503 c-18 -6 -16 -23 1 -23 17 0 30 16 19 23 -5 2 -14 2 -20 0z"/>
<path d="M1490 1460 c-13 -8 -12 -10 3 -10 9 0 17 5 17 10 0 12 -1 12 -20 0z"/>
<path d="M907 1484 c-4 -4 -4 -10 -1 -15 6 -10 34 0 34 12 0 10 -24 12 -33 3z"/>
<path d="M3472 3328 c-7 -7 -12 -19 -12 -28 0 -9 -5 -21 -12 -28 -9 -9 -3 -12
28 -12 21 0 46 5 54 10 13 8 10 14 -15 40 -24 24 -33 28 -43 18z"/>
<path d="M3287 3304 c-3 -3 -3 -12 0 -20 3 -8 -2 -25 -11 -39 -16 -24 -16 -25
9 -25 24 0 25 2 19 43 -8 47 -8 49 -17 41z"/>
<path d="M7654 3285 c-4 -8 -4 -22 0 -30 4 -11 -1 -15 -17 -15 -21 -1 -21 -1
3 -15 37 -21 40 -19 40 30 0 44 -15 60 -26 30z"/>
<path d="M0 3266 c0 -2 7 -6 15 -10 8 -3 15 -1 15 4 0 6 -7 10 -15 10 -8 0
-15 -2 -15 -4z"/>
<path d="M1958 3220 c-14 -28 -23 -60 -21 -71 5 -19 6 -19 20 1 8 11 22 20 32
20 30 0 34 -31 10 -64 -22 -29 -22 -29 -4 -85 23 -71 27 -74 64 -66 34 7 43
25 13 25 -27 0 -34 11 -15 25 14 11 15 19 4 76 -7 35 -18 73 -25 84 -7 11 -16
31 -19 45 -3 14 -12 33 -20 44 -12 17 -15 14 -39 -34z"/>
<path d="M3220 3254 c0 -8 5 -12 10 -9 6 4 8 11 5 16 -9 14 -15 11 -15 -7z"/>
<path d="M5904 3261 c-38 -10 -79 -47 -59 -55 7 -2 23 6 36 20 12 13 30 24 40
24 10 0 21 5 24 10 7 11 3 11 -41 1z"/>
<path d="M7300 3235 c0 -8 8 -15 19 -15 10 0 24 7 31 15 11 13 8 15 -19 15
-21 0 -31 -5 -31 -15z"/>
<path d="M613 3214 c-13 -14 -23 -32 -23 -40 0 -26 31 -62 62 -73 41 -15 48
-14 48 5 0 20 -50 134 -59 134 -3 0 -16 -12 -28 -26z"/>
<path d="M2468 3219 c12 -11 27 -17 33 -14 15 10 -9 35 -34 35 -21 0 -21 0 1
-21z"/>
<path d="M3505 3224 c-72 -16 -122 -44 -77 -44 12 0 22 -4 22 -10 0 -5 -5 -10
-11 -10 -5 0 -8 -4 -5 -8 4 -6 101 -7 189 -2 11 0 -2 60 -15 78 -12 14 -14 14
-103 -4z"/>
<path d="M6024 3226 c-3 -8 -4 -22 -2 -31 2 -12 7 -7 15 14 6 18 7 31 2 31 -5
0 -12 -6 -15 -14z"/>
<path d="M6880 3225 c0 -8 8 -15 19 -15 10 0 24 7 31 15 11 13 8 15 -19 15
-21 0 -31 -5 -31 -15z"/>
<path d="M7580 3225 c0 -9 9 -15 21 -15 18 0 19 2 9 15 -7 8 -16 15 -21 15 -5
0 -9 -7 -9 -15z"/>
<path d="M6979 3193 c-19 -21 -47 -43 -62 -50 -30 -14 -29 -19 13 -90 14 -24
30 -43 36 -43 23 0 64 68 64 105 0 20 7 43 16 52 21 21 14 57 -12 61 -14 2
-32 -10 -55 -35z"/>
<path d="M7508 3183 c-33 -16 -37 -31 -41 -140 l-3 -83 78 0 c43 0 78 3 78 8
0 4 14 16 30 27 27 18 30 25 30 71 0 57 -7 65 -62 83 -20 7 -47 20 -60 30 -20
15 -26 16 -50 4z"/>
<path d="M922 3143 c1 -27 7 -60 15 -75 7 -15 13 -43 13 -63 0 -24 8 -45 27
-65 39 -45 71 -102 68 -121 -3 -13 5 -19 26 -23 97 -19 95 -18 74 -27 -16 -6
-13 -8 15 -8 62 -1 66 9 40 81 -26 72 -67 158 -76 158 -4 0 -4 -18 0 -39 7
-45 2 -51 -37 -44 -36 7 -45 28 -23 52 16 18 15 23 -23 100 -23 44 -41 87 -41
95 0 16 -21 26 -56 26 -22 0 -23 -4 -22 -47z"/>
<path d="M2495 3180 c3 -5 8 -10 11 -10 2 0 4 5 4 10 0 6 -5 10 -11 10 -5 0
-7 -4 -4 -10z"/>
<path d="M3285 3175 c-5 -2 -29 -9 -52 -15 -46 -12 -58 -30 -20 -31 l22 0 -21
-9 c-30 -12 -35 -23 -28 -58 5 -23 16 -34 47 -48 42 -19 97 -84 97 -116 0 -10
7 -18 15 -18 16 0 21 25 6 34 -4 3 -11 54 -13 113 -3 61 -9 108 -15 110 -6 2
-9 13 -6 23 5 19 -6 24 -32 15z"/>
<path d="M1416 3149 c-8 -12 -29 -30 -46 -41 -26 -16 -30 -21 -19 -34 10 -12
9 -13 -3 -9 -10 4 -23 -13 -45 -57 -45 -92 -45 -95 -21 -160 l23 -59 40 6 c22
3 66 13 97 22 l56 17 0 44 c0 35 -5 50 -25 68 -14 13 -29 22 -33 19 -4 -2 -15
4 -25 15 -17 19 -17 20 2 20 11 0 26 -7 33 -15 33 -40 45 0 24 82 -9 35 -13
67 -10 70 7 7 -13 33 -25 33 -4 0 -15 -10 -23 -21z"/>
<path d="M5595 3160 c3 -5 8 -10 11 -10 2 0 4 5 4 10 0 6 -5 10 -11 10 -5 0
-7 -4 -4 -10z"/>
<path d="M6285 3159 c-10 -15 1 -23 20 -15 9 3 13 10 10 16 -8 13 -22 13 -30
-1z"/>
<path d="M6677 3163 c-14 -13 -6 -23 19 -23 22 0 25 2 14 15 -14 16 -23 19
-33 8z"/>
<path d="M52 3155 c4 -4 3 -16 -3 -27 -7 -13 -7 -30 1 -54 18 -54 4 -52 -22 2
l-23 49 -3 -39 c-3 -34 -1 -51 14 -101 2 -5 17 -50 35 -100 23 -66 32 -110 34
-168 3 -89 -10 -98 -32 -21 -8 27 -19 53 -24 58 -5 6 -9 19 -9 30 0 12 -5 28
-10 36 -7 10 -10 -39 -9 -157 2 -157 4 -172 21 -176 25 -7 23 -37 -2 -37 -17
0 -20 -7 -20 -48 0 -51 12 -72 42 -72 10 0 18 -4 18 -10 0 -5 -13 -10 -30 -10
-27 0 -30 -3 -30 -29 0 -33 36 -101 52 -101 6 0 16 -8 23 -17 11 -15 15 -15
29 -4 28 23 42 5 60 -76 22 -99 39 -131 172 -331 208 -312 224 -337 224 -350
0 -16 29 -47 37 -39 3 3 0 20 -6 38 -6 18 -11 42 -11 54 0 28 -49 194 -108
365 -73 210 -110 350 -56 211 13 -35 28 -69 33 -75 5 -6 14 -29 21 -51 7 -22
23 -64 36 -93 13 -29 24 -64 24 -77 0 -14 5 -25 10 -25 15 0 12 77 -5 135 -7
28 -28 90 -44 140 -34 98 -54 185 -54 228 0 21 -2 25 -9 15 -7 -9 -8 -5 -5 14
3 21 -4 35 -29 59 -31 30 -48 69 -24 54 22 -14 8 36 -24 84 -19 28 -41 63 -48
78 -8 15 -19 37 -25 48 -33 63 -54 110 -84 193 -18 51 -44 104 -56 119 -20 22
-23 38 -24 107 -1 105 -17 170 -44 174 -11 3 -17 1 -13 -3z m58 -905 c13 -24
5 -56 -15 -64 -12 -4 -15 4 -15 39 0 48 12 58 30 25z m60 -72 c0 -16 -3 -19
-11 -11 -6 6 -8 16 -5 22 11 17 16 13 16 -11z"/>
<path d="M756 3149 c-2 -8 -7 -36 -10 -63 -5 -42 -3 -53 16 -73 25 -26 43 -30
34 -7 -4 10 4 19 27 29 17 8 41 22 52 30 l20 16 -20 14 c-11 8 -29 23 -40 34
-26 26 -73 38 -79 20z"/>
<path d="M5635 3140 c-12 -20 69 -100 103 -100 22 0 12 20 -33 65 -45 46 -59
53 -70 35z"/>
<path d="M1563 3126 c-27 -13 -29 -39 -8 -90 13 -30 18 -34 33 -27 9 6 33 13
54 16 l36 6 -10 37 c-16 62 -55 84 -105 58z"/>
<path d="M3051 3121 c-37 -10 -40 -34 -4 -26 48 11 54 14 48 25 -7 11 -9 11
-44 1z"/>
<path d="M3118 3123 c6 -2 18 -2 25 0 6 3 1 5 -13 5 -14 0 -19 -2 -12 -5z"/>
<path d="M5129 3108 c-34 -21 -69 -81 -69 -120 0 -31 32 -98 51 -108 19 -11
69 5 69 22 0 4 6 8 14 8 9 0 12 7 9 19 -4 15 3 20 31 25 36 7 65 39 46 51 -15
9 -12 45 4 45 8 0 22 10 30 22 15 21 14 24 -3 41 -16 16 -21 17 -39 6 -17 -11
-24 -11 -34 -1 -18 18 -69 14 -109 -10z"/>
<path d="M7381 3114 c0 -11 3 -14 6 -6 3 7 2 16 -1 19 -3 4 -6 -2 -5 -13z"/>
<path d="M2501 3104 c0 -11 3 -14 6 -6 3 7 2 16 -1 19 -3 4 -6 -2 -5 -13z"/>
<path d="M4996 3105 c-10 -27 -7 -93 5 -100 16 -10 20 -2 21 49 1 50 -14 80
-26 51z"/>
<path d="M5857 3113 c-13 -12 -7 -23 12 -23 10 0 21 -7 25 -15 6 -16 41 -21
50 -7 6 11 -48 52 -67 52 -7 0 -17 -3 -20 -7z"/>
<path d="M1920 3081 c-13 -26 2 -97 25 -120 16 -15 17 -13 11 29 -4 25 -7 57
-7 72 0 35 -15 44 -29 19z"/>
<path d="M3118 3095 c-3 -3 -25 -9 -48 -13 -24 -4 -45 -13 -48 -20 -5 -16 26
-15 59 2 14 7 38 12 52 10 18 -2 27 2 27 12 0 13 -31 20 -42 9z"/>
<path d="M7370 3079 c0 -5 5 -7 10 -4 6 3 10 8 10 11 0 2 -4 4 -10 4 -5 0 -10
-5 -10 -11z"/>
<path d="M3500 3055 c-18 -11 -21 -15 -10 -19 19 -7 69 6 72 19 4 15 -34 15
-62 0z"/>
<path d="M2760 3050 c-13 -9 -13 -10 0 -9 8 1 26 5 40 9 l25 8 -25 1 c-14 0
-32 -4 -40 -9z"/>
<path d="M6057 3036 c-19 -18 -22 -26 -13 -29 8 -3 23 5 35 17 38 41 20 51
-22 12z"/>
<path d="M6500 3050 c0 -5 5 -10 10 -10 6 0 10 5 10 10 0 6 -4 10 -10 10 -5 0
-10 -4 -10 -10z"/>
<path d="M4288 3034 c-4 -5 0 -18 8 -29 15 -20 17 -12 5 19 -4 11 -10 15 -13
10z"/>
<path d="M6360 3025 c-11 -13 -9 -15 15 -15 16 0 25 5 23 12 -7 19 -24 20 -38
3z"/>
<path d="M7070 3013 c-16 -20 -20 -36 -16 -63 6 -36 -6 -61 -35 -72 -11 -4
-19 -24 -23 -60 -13 -101 -13 -101 16 -109 24 -6 28 -4 37 24 6 18 13 65 17
105 5 55 10 70 19 62 9 -7 12 -1 13 24 1 18 5 52 11 75 11 50 -6 56 -39 14z"/>
<path d="M2805 3023 c-16 -3 -35 -13 -43 -24 -10 -15 -17 -17 -32 -9 -33 18
-41 12 -38 -27 3 -33 8 -39 35 -48 17 -6 41 -19 52 -30 24 -21 37 -13 43 25 2
14 9 24 16 22 20 -4 33 44 20 73 -6 14 -14 24 -17 24 -3 -1 -19 -4 -36 -6z"/>
<path d="M3530 3010 c0 -23 37 -47 52 -32 7 7 3 12 -12 17 -20 6 -21 7 -3 21
17 12 16 13 -9 14 -21 0 -28 -5 -28 -20z"/>
<path d="M6716 3014 c-7 -18 18 -64 34 -64 11 0 13 40 4 64 -8 21 -30 20 -38
0z"/>
<path d="M2595 3010 c-8 -13 5 -13 25 0 13 8 13 10 -2 10 -9 0 -20 -4 -23 -10z"/>
<path d="M7349 2998 c-5 -16 -9 -58 -5 -58 21 0 54 22 59 39 4 18 1 21 -24 21
-16 0 -29 -1 -30 -2z"/>
<path d="M2608 2983 c-22 -6 -23 -19 -2 -27 26 -10 34 -7 34 14 0 20 -2 21
-32 13z"/>
<path d="M800 2974 c1 -22 104 -114 114 -103 12 12 -10 62 -33 79 -31 21 -81
36 -81 24z"/>
<path d="M2555 2960 c3 -5 8 -10 11 -10 2 0 4 5 4 10 0 6 -5 10 -11 10 -5 0
-7 -4 -4 -10z"/>
<path d="M3526 2949 c10 -12 19 -30 19 -40 0 -17 14 -28 15 -11 1 4 7 17 15
29 13 20 12 22 -17 32 -46 16 -53 14 -32 -10z"/>
<path d="M1587 2923 c7 -47 19 -63 48 -63 56 0 58 68 2 88 -52 19 -56 16 -50
-25z"/>
<path d="M3053 2953 c-21 -8 -15 -22 7 -16 11 3 20 9 20 14 0 10 -8 10 -27 2z"/>
<path d="M5814 2949 c-3 -6 -1 -16 5 -22 17 -17 13 -52 -6 -69 -10 -9 -38 -19
-63 -23 -59 -10 -123 -44 -116 -61 3 -8 1 -14 -4 -14 -6 0 -10 4 -10 9 0 16
-68 33 -103 26 -17 -4 -57 -15 -87 -25 -30 -11 -80 -26 -111 -34 -34 -10 -70
-28 -89 -46 -32 -29 -58 -35 -52 -11 1 6 -10 11 -25 10 -30 0 -117 -32 -109
-39 2 -3 -12 -5 -31 -6 -19 0 -39 -7 -44 -15 -5 -8 -9 -10 -9 -4 0 5 -7 0 -15
-12 -8 -12 -30 -25 -48 -28 -53 -12 -52 -16 22 -52 69 -33 72 -33 113 -19 24
8 65 17 92 21 46 7 48 7 38 -12 -6 -11 -36 -28 -66 -38 -31 -11 -56 -22 -56
-26 0 -3 12 -20 28 -38 l27 -31 93 8 c71 6 100 5 125 -6 31 -13 31 -14 12 -28
-15 -12 -36 -14 -90 -9 -56 5 -74 3 -90 -9 -20 -16 -19 -17 14 -46 19 -16 38
-27 43 -24 4 3 8 1 8 -3 0 -5 19 -18 43 -28 23 -10 72 -38 110 -62 37 -24 73
-43 80 -43 20 0 157 64 157 74 0 5 -33 45 -73 90 -40 44 -106 122 -146 171
l-72 90 61 -65 c33 -36 102 -113 152 -172 50 -60 95 -108 100 -109 14 -2 48
-1 53 1 17 8 113 19 207 23 69 3 80 7 112 35 45 39 91 52 163 45 44 -5 54 -3
48 6 -6 10 -3 11 11 3 20 -11 95 -89 110 -114 5 -8 61 -34 124 -58 169 -64
233 -94 308 -147 37 -26 69 -51 70 -55 2 -5 7 -6 11 -3 5 2 50 -40 102 -94 81
-86 96 -98 113 -89 17 9 18 7 12 -15 -4 -19 4 -38 37 -83 55 -76 60 -84 49
-84 -5 0 -41 29 -78 65 -38 35 -73 65 -79 65 -16 0 -225 -93 -225 -100 0 -4
24 -10 53 -13 28 -4 111 -13 182 -22 131 -15 195 -12 195 9 0 6 -7 153 -14
326 -12 281 -10 490 6 505 5 6 13 -92 23 -285 16 -307 27 -487 30 -498 3 -7 9
-11 15 -7 5 3 2 -8 -8 -24 -11 -20 -13 -33 -7 -40 16 -15 261 -34 351 -26 l84
7 0 160 0 159 -107 -57 c-60 -32 -119 -65 -133 -75 -60 -41 -143 -90 -147 -86
-2 3 21 27 53 53 111 96 121 106 99 100 -11 -3 -37 -8 -59 -12 -55 -10 -44 16
16 36 25 9 52 21 60 28 8 6 39 16 69 22 30 6 75 21 102 32 l47 21 0 299 0 298
-37 23 c-21 13 -48 27 -60 31 -11 4 -27 13 -33 21 -15 18 -50 20 -50 3 0 -7
-5 -31 -11 -53 -10 -36 -12 -38 -24 -21 -10 13 -11 25 -4 43 5 13 9 28 9 33 0
15 -34 17 -66 4 -17 -7 -48 -10 -72 -7 -34 5 -42 3 -42 -11 0 -9 -5 -16 -11
-16 -5 0 -7 5 -4 10 4 7 -3 8 -20 4 l-26 -6 2 90 c1 70 -2 94 -14 106 -14 14
-16 2 -22 -114 -4 -72 -12 -133 -16 -136 -5 -3 -22 4 -38 15 -16 12 -36 21
-45 21 -9 0 -19 7 -22 15 -13 33 -32 14 -36 -37 -7 -71 -23 -109 -43 -102 -8
3 -15 11 -15 18 0 20 -47 66 -67 66 -17 0 -21 9 -27 58 -4 31 -9 65 -10 75 -1
10 -16 26 -32 36 -16 10 -35 25 -43 34 -21 26 -38 20 -45 -14 -7 -39 -1 -49
30 -49 25 0 31 -19 18 -67 -8 -28 -19 -29 -41 -3 -17 20 -17 20 -40 -2 -33
-31 -47 -13 -36 43 6 30 14 43 24 42 8 -2 21 13 30 36 15 36 15 40 -5 82 -13
28 -32 49 -53 59 -17 8 -40 26 -51 39 l-19 25 -13 -24 c-9 -16 -10 -40 -5 -79
10 -73 11 -278 2 -287 -13 -14 -31 16 -33 54 -1 20 -2 67 -4 103 l-3 67 -33
-14 c-42 -18 -41 -18 -47 5 -6 23 3 36 23 36 10 0 16 12 18 39 2 22 13 51 24
65 l20 26 -30 3 c-16 2 -45 -1 -63 -6 -29 -7 -35 -14 -40 -46 -10 -63 -39 -72
-60 -19 -9 24 -11 24 -32 10 -17 -11 -22 -24 -22 -58 0 -40 -8 -58 -27 -59 -4
0 -5 7 -2 15 4 9 -1 18 -11 21 -18 7 -85 -50 -85 -73 0 -7 53 -66 118 -131
118 -121 252 -263 358 -382 32 -36 124 -131 204 -213 80 -81 147 -153 149
-160 2 -6 -45 36 -105 94 -163 158 -193 186 -295 279 -52 46 -249 238 -438
427 -189 189 -347 343 -352 343 -4 0 -11 -5 -15 -11z m98 -136 c21 -19 24 -53
4 -53 -24 0 -60 36 -53 53 8 22 25 22 49 0z m-217 -63 c-3 -5 6 -12 20 -16 14
-3 25 -11 25 -16 0 -6 -7 -7 -16 -4 -21 8 -56 -2 -49 -14 3 -4 -5 -6 -17 -2
-13 3 -19 1 -15 -5 4 -6 0 -13 -8 -17 -9 -3 -15 0 -15 10 0 23 -26 28 -76 14
-83 -23 -55 -3 38 28 100 33 123 37 113 22z m212 -6 c-3 -3 -12 -4 -19 -1 -8
3 -5 6 6 6 11 1 17 -2 13 -5z m619 -101 c15 -42 19 -123 6 -123 -18 0 -40 60
-45 124 -6 65 -5 69 10 53 9 -9 22 -33 29 -54z m-661 38 c22 -10 58 -37 80
-61 22 -23 75 -78 118 -122 43 -44 76 -82 74 -84 -2 -3 -18 -6 -34 -8 -24 -3
-33 1 -41 20 -8 17 -8 25 0 30 7 5 8 3 3 -6 -5 -9 -4 -11 4 -6 14 9 -16 45
-123 152 -44 44 -85 76 -108 83 -21 7 -38 14 -38 17 0 9 27 3 65 -15z m208
-47 c37 -36 67 -69 67 -73 0 -4 -16 -16 -35 -27 l-35 -19 -67 65 c-95 92 -98
98 -52 111 45 13 54 9 122 -57z m-625 41 c-3 -3 -21 -10 -39 -15 -31 -9 -32
-8 -15 5 18 14 66 22 54 10z m-118 -35 c-8 -5 -24 -9 -35 -9 -16 1 -16 2 5 9
35 11 48 11 30 0z m-226 -36 c20 -19 12 -34 -18 -34 -27 0 -46 18 -39 36 7 19
38 18 57 -2z m736 -84 c45 -26 82 -40 107 -41 37 -1 37 -2 8 -8 l-30 -7 34
-18 c25 -13 36 -15 45 -6 8 8 7 13 -4 20 -8 5 -10 10 -5 10 20 0 38 -18 32
-34 -4 -10 5 -24 26 -41 34 -26 28 -33 -11 -11 -20 11 -32 10 -79 -6 -31 -10
-66 -17 -77 -17 -17 1 -18 2 -3 6 9 2 17 9 17 15 0 5 7 8 15 4 9 -3 15 0 15 8
0 10 -7 12 -22 9 -13 -3 -20 -3 -17 0 3 4 23 10 45 15 l39 8 -42 22 c-25 13
-60 22 -88 22 -45 0 -46 -1 -43 -27 3 -28 5 -29 62 -32 11 -1 17 -4 13 -7 -5
-5 -27 -9 -79 -13 -5 -1 -8 -6 -8 -12 0 -6 9 -8 20 -4 11 3 28 2 37 -4 17 -10
16 -11 -4 -17 -22 -6 -22 -6 6 -30 16 -13 39 -28 52 -33 22 -9 22 -10 4 -10
-11 -1 -31 6 -43 15 -12 8 -22 13 -22 9 0 -3 -14 9 -32 26 -20 18 -39 28 -50
26 -10 -3 -18 -1 -18 5 0 5 -4 7 -9 3 -5 -3 -12 -1 -16 5 -3 6 0 12 7 15 14 6
24 86 11 84 -22 -4 -44 2 -39 10 3 4 17 6 31 3 23 -4 25 -1 25 30 0 31 6 48
17 48 3 0 35 -18 73 -40z m1370 -46 c0 -12 -14 -34 -21 -34 -13 0 -30 47 -23
65 5 13 9 12 25 -6 11 -12 19 -23 19 -25z m-1656 -8 c10 -3 34 -1 53 5 31 10
65 2 35 -8 -10 -4 -8 -9 5 -19 11 -8 13 -13 5 -14 -17 0 -11 -31 8 -47 13 -11
13 -12 -2 -13 -9 0 -23 -3 -32 -6 -12 -4 -16 0 -16 16 0 12 -5 31 -12 43 -10
20 -10 21 5 8 15 -11 17 -11 17 2 0 21 -12 27 -38 21 -13 -4 -19 -11 -15 -21
4 -11 2 -14 -8 -11 -8 3 -13 11 -11 17 1 6 -5 11 -13 11 -24 0 -18 -16 20 -49
43 -37 46 -50 5 -19 -17 12 -39 37 -50 54 -17 29 -17 32 -2 27 14 -5 15 -3 5
8 -19 20 -15 34 5 17 9 -8 26 -18 36 -22z m-248 9 c21 -16 16 -18 -36 -15 -40
2 -45 5 -35 19 9 16 48 13 71 -4z m2096 -72 c23 -20 24 -69 1 -77 -9 -4 -39
-2 -67 3 -78 15 -84 13 -88 -31 -2 -21 0 -38 4 -38 5 0 8 -4 8 -10 0 -5 -7
-10 -15 -10 -11 0 -13 11 -9 53 2 28 5 59 6 67 0 8 10 25 21 38 26 28 110 31
139 5z m226 -40 c-15 -15 -30 -24 -33 -21 -8 7 35 48 49 48 6 0 -2 -12 -16
-27z m-1925 1 c3 -4 -3 -24 -14 -46 -15 -30 -18 -43 -9 -53 11 -14 6 -35 -8
-35 -13 0 -7 86 6 103 8 9 11 21 7 27 -7 11 8 14 18 4z m1155 -85 c10 -52
-104 -93 -142 -50 -15 17 -17 23 -6 36 28 34 142 45 148 14z"/>
<path d="M5792 2503 c2 -12 14 -19 38 -21 38 -4 33 7 -13 26 -25 11 -28 10
-25 -5z"/>
<path d="M5760 2456 c0 -25 5 -46 10 -46 6 0 10 18 10 39 0 22 -4 43 -10 46
-6 4 -10 -12 -10 -39z"/>
<path d="M6896 2951 c-4 -7 -5 -15 -2 -18 9 -9 19 4 14 18 -4 11 -6 11 -12 0z"/>
<path d="M7220 2949 c0 -5 5 -9 10 -9 6 0 10 -6 9 -12 -5 -41 15 -53 25 -15 8
32 8 31 -19 39 -14 3 -25 2 -25 -3z"/>
<path d="M4594 2904 c-4 -15 0 -40 11 -63 19 -44 44 -51 38 -12 -2 14 -5 37
-6 51 -5 52 -32 67 -43 24z"/>
<path d="M6081 2909 c-15 -16 -26 -19 -50 -14 -17 4 -31 4 -31 1 0 -3 29 -36
64 -73 l64 -66 26 29 c31 36 32 48 4 102 -26 47 -47 53 -77 21z"/>
<path d="M3055 2909 c-12 -19 5 -23 22 -6 16 16 16 17 1 17 -9 0 -20 -5 -23
-11z"/>
<path d="M3117 2896 c-3 -8 -16 -16 -29 -19 -20 -4 -20 -4 5 -6 25 -1 48 22
34 35 -2 3 -7 -2 -10 -10z"/>
<path d="M4426 2870 c3 -19 12 -60 19 -90 7 -30 18 -85 25 -122 l13 -67 83
-25 c45 -14 89 -26 97 -26 21 0 67 21 67 31 0 12 -30 39 -44 39 -7 0 -24 14
-37 32 -72 96 -142 178 -152 179 -7 1 -18 1 -25 0 -7 -1 -12 2 -11 6 3 17 -2
29 -21 53 l-20 25 6 -35z"/>
<path d="M6929 2887 c-13 -7 -25 -22 -27 -34 -6 -42 67 -86 81 -49 6 16 -10
83 -21 90 -5 3 -19 -1 -33 -7z"/>
<path d="M7493 2885 c-18 -8 -50 -27 -70 -43 -21 -16 -57 -37 -80 -48 -48 -21
-49 -23 -58 -88 -6 -39 -5 -46 9 -46 9 0 16 -7 16 -15 0 -8 5 -15 11 -15 6 0
9 9 6 20 -4 14 0 20 13 20 10 0 23 6 29 13 6 8 30 19 53 26 89 26 105 46 122
150 7 46 1 49 -51 26z"/>
<path d="M974 2846 c-9 -23 16 -71 36 -71 24 0 22 28 -4 60 -22 28 -25 28 -32
11z"/>
<path d="M3142 2848 c-5 -5 -29 -9 -51 -6 -33 3 -41 0 -41 -13 0 -24 9 -28 41
-17 24 8 34 7 49 -7 11 -10 21 -14 21 -9 8 56 2 73 -19 52z"/>
<path d="M3190 2850 c0 -5 7 -10 16 -10 8 0 12 5 9 10 -3 6 -10 10 -16 10 -5
0 -9 -4 -9 -10z"/>
<path d="M5425 2850 c-16 -5 -42 -12 -57 -15 -25 -5 -67 -50 -56 -60 2 -2 31
4 64 15 32 11 78 24 102 30 26 7 42 16 39 23 -4 15 -52 18 -92 7z"/>
<path d="M1680 2833 c-35 -7 -68 -17 -72 -21 -8 -8 33 -186 50 -218 14 -26 53
-37 96 -28 55 12 57 16 54 156 l-2 128 -31 -1 c-16 -1 -59 -8 -95 -16z"/>
<path d="M3535 2840 c-4 -7 -3 -16 3 -22 14 -14 45 -2 40 15 -6 16 -34 21 -43
7z"/>
<path d="M7105 2784 c-28 -42 -34 -59 -26 -67 9 -9 13 -6 17 9 3 12 25 34 50
49 50 31 60 65 20 65 -18 0 -33 -14 -61 -56z"/>
<path d="M3352 2818 c-7 -7 -12 -18 -12 -25 0 -6 -8 -17 -17 -23 -17 -11 -17
-11 0 -6 10 3 27 6 38 6 13 0 19 7 19 24 0 30 -12 40 -28 24z"/>
<path d="M7625 2820 c-3 -5 -1 -10 4 -10 6 0 11 5 11 10 0 6 -2 10 -4 10 -3 0
-8 -4 -11 -10z"/>
<path d="M2842 2780 c1 -25 -4 -56 -11 -69 -7 -13 -14 -34 -16 -48 -2 -22 0
-23 29 -17 17 3 32 7 33 8 1 1 -3 33 -8 71 -14 86 -30 119 -27 55z"/>
<path d="M6530 2796 c0 -8 5 -18 10 -21 6 -3 10 3 10 14 0 12 -4 21 -10 21 -5
0 -10 -6 -10 -14z"/>
<path d="M555 2761 c-7 -44 -4 -130 5 -136 6 -4 148 29 180 41 22 9 -83 100
-136 118 l-43 14 -6 -37z"/>
<path d="M1407 2780 c-49 -10 -94 -24 -102 -30 -7 -6 -46 -13 -87 -15 -64 -4
-172 -26 -184 -38 -3 -3 14 -35 38 -72 24 -37 42 -72 40 -77 -1 -5 2 -7 8 -3
6 3 7 11 4 17 -4 6 -2 8 4 4 11 -7 160 39 176 55 6 5 10 23 10 41 1 28 5 33
31 38 18 3 34 14 40 27 10 24 43 33 115 33 51 0 61 5 53 26 -7 18 -37 17 -146
-6z"/>
<path d="M3550 2790 c0 -5 9 -10 20 -10 18 0 20 -7 20 -84 0 -52 4 -88 11 -92
9 -5 10 17 5 82 -3 49 -7 95 -8 102 -2 14 -48 17 -48 2z"/>
<path d="M5118 2768 c-32 -11 -58 -24 -58 -29 0 -5 -11 -7 -24 -3 -15 3 -34
-1 -50 -11 -14 -10 -26 -14 -26 -9 0 4 -5 3 -11 -3 -7 -7 -8 -17 -3 -25 7 -11
19 -12 52 -5 23 4 40 12 37 17 -3 5 0 12 6 16 8 4 9 3 5 -4 -11 -18 27 -15 89
9 31 12 55 27 55 35 0 8 0 17 1 21 1 14 -16 12 -73 -9z"/>
<path d="M7589 2764 c-12 -14 -11 -16 5 -13 11 2 21 10 24 17 5 17 -13 15 -29
-4z"/>
<path d="M3245 2755 c-29 -13 -29 -13 -5 -13 14 -1 34 3 44 7 16 6 16 9 5 13
-8 3 -28 0 -44 -7z"/>
<path d="M4697 2736 c-2 -6 -1 -20 4 -31 4 -11 8 -16 8 -11 1 6 7 2 14 -8 12
-16 14 -16 26 -2 11 13 11 20 -2 39 -16 25 -43 31 -50 13z"/>
<path d="M3285 2733 c-47 -10 -48 -12 -31 -38 18 -28 15 -29 -32 -16 l-32 10
0 -42 c1 -37 5 -45 36 -64 36 -23 77 -28 146 -17 38 7 43 24 7 24 -28 0 -21
34 9 38 29 4 28 29 -1 73 -23 34 -53 44 -102 32z"/>
<path d="M3055 2710 c-8 -12 42 -12 70 0 16 7 11 9 -22 9 -23 1 -45 -3 -48 -9z"/>
<path d="M7657 2694 c-8 -8 1 -24 14 -24 5 0 9 7 9 15 0 15 -12 20 -23 9z"/>
<path d="M1395 2660 c-10 -12 -25 -18 -32 -16 -7 3 -13 -1 -13 -9 0 -11 11
-15 39 -15 22 0 46 -3 55 -6 24 -9 21 43 -3 56 -26 13 -25 13 -46 -10z"/>
<path d="M655 2624 c-60 -14 -131 -28 -158 -33 -26 -4 -50 -11 -53 -14 -4 -3
1 -40 11 -81 l16 -76 47 0 c26 -1 83 -7 127 -15 44 -8 96 -15 115 -15 19 0 75
-11 123 -24 64 -17 94 -31 110 -50 23 -27 57 -35 57 -14 0 25 -64 169 -79 178
-9 4 -34 33 -56 64 -22 31 -54 63 -72 71 -18 9 -35 20 -38 25 -8 13 -22 12
-150 -16z"/>
<path d="M1286 2540 c5 -42 4 -46 -25 -63 -17 -10 -31 -23 -31 -29 0 -6 8 -4
18 5 10 9 31 22 47 29 l30 13 -23 45 -22 45 6 -45z"/>
<path d="M1408 2530 l-36 -38 23 -22 c20 -19 28 -21 52 -12 l28 10 -26 1 c-15
1 -32 8 -39 16 -10 13 -8 20 14 41 14 15 26 31 26 35 0 13 -2 12 -42 -31z"/>
<path d="M1782 2538 c3 -7 13 -15 24 -17 16 -3 17 -1 5 13 -16 19 -34 21 -29
4z"/>
<path d="M3060 2517 c0 -28 26 -67 46 -67 18 0 18 3 -6 50 -23 45 -40 52 -40
17z"/>
<path d="M4510 2501 c0 -7 12 -23 27 -37 26 -24 124 -84 138 -84 3 0 4 14 0
31 -5 21 -3 34 5 39 8 5 2 12 -18 23 -27 13 -34 13 -57 1 -36 -18 -51 -18 -35
1 16 19 12 23 -28 31 -21 4 -32 3 -32 -5z"/>
<path d="M4833 2499 c-20 -20 -16 -28 23 -44 46 -19 71 -19 90 0 13 12 12 16
-8 29 -34 22 -91 30 -105 15z"/>
<path d="M1436 2491 c-4 -5 3 -7 14 -4 23 6 26 13 6 13 -8 0 -17 -4 -20 -9z"/>
<path d="M1288 2469 c-32 -18 -42 -48 -22 -70 18 -20 69 -25 94 -9 13 9 13 11
0 20 -8 5 -21 10 -28 10 -28 0 -4 25 29 31 l34 6 -28 11 c-34 14 -56 15 -79 1z"/>
<path d="M3194 2430 c0 -13 4 -16 10 -10 7 7 7 13 0 20 -6 6 -10 3 -10 -10z"/>
<path d="M4700 2436 c0 -2 7 -9 15 -16 9 -7 15 -8 15 -2 0 5 -7 12 -15 16 -8
3 -15 4 -15 2z"/>
<path d="M4983 2433 c-23 -9 -13 -38 21 -59 25 -16 37 -19 45 -11 17 17 13 34
-15 56 -28 22 -31 23 -51 14z"/>
<path d="M4831 2408 c22 -19 28 -41 14 -55 -10 -9 -21 -4 -50 23 -21 19 -41
34 -46 34 -5 0 2 -22 17 -50 23 -44 29 -49 52 -44 15 3 63 6 107 7 l80 2 3
-29 4 -29 60 7 c49 5 65 3 80 -11 10 -9 18 -11 18 -5 0 14 -73 62 -93 62 -8 0
-17 3 -21 8 -4 4 -11 7 -14 7 -4 0 -27 10 -52 22 -57 26 -118 50 -150 58 -22
5 -23 4 -9 -7z"/>
<path d="M1240 2386 c0 -2 8 -10 18 -17 15 -13 16 -12 3 4 -13 16 -21 21 -21
13z"/>
<path d="M1543 2310 c-3 -11 -9 -17 -14 -15 -4 3 -32 -5 -61 -19 -29 -13 -80
-30 -113 -37 -65 -15 -67 -19 -50 -84 8 -29 8 -29 -26 10 -68 79 -89 90 -106
52 -9 -19 -6 -33 14 -73 13 -27 29 -50 34 -52 5 -2 9 -13 9 -25 1 -20 2 -21
14 -5 10 13 15 15 24 6 9 -9 12 -9 12 1 0 20 31 40 60 41 14 0 43 9 66 19 23
10 60 22 83 26 22 4 43 11 47 16 3 5 22 9 42 9 36 0 151 26 161 36 15 15 -137
114 -175 114 -9 0 -18 -9 -21 -20z"/>
<path d="M1991 2291 c-9 -6 -11 -19 -7 -42 6 -30 5 -31 -5 -14 -21 34 -33 42
-51 37 -10 -2 -18 -11 -18 -18 0 -8 0 -17 -1 -21 0 -4 5 -9 11 -11 8 -3 10 3
5 17 -4 13 -2 21 5 21 6 0 13 -8 16 -17 16 -49 38 -92 50 -97 8 -3 14 -1 14 4
0 5 7 7 15 4 19 -8 19 -8 -4 59 -12 33 -16 59 -10 62 11 7 12 25 2 25 -5 0
-14 -4 -22 -9z"/>
<path d="M6161 2267 c-57 -25 -37 -38 31 -21 28 8 55 11 60 8 6 -4 8 2 6 12
-4 25 -42 25 -97 1z"/>
<path d="M6266 2241 c-9 -13 23 -36 34 -25 6 6 2 14 -10 22 -10 6 -21 8 -24 3z"/>
<path d="M5170 2221 c0 -10 7 -24 15 -31 8 -7 15 -16 15 -21 0 -16 -31 -10
-81 16 l-49 24 0 -29 c0 -25 8 -33 76 -69 41 -23 79 -41 83 -41 17 0 1 77 -24
123 -29 52 -35 56 -35 28z"/>
<path d="M1723 2193 c-42 -8 -23 -19 35 -20 31 0 49 1 39 4 -9 2 -15 9 -12 14
6 9 -21 10 -62 2z"/>
<path d="M5711 2149 c-14 -5 -30 -8 -36 -5 -23 8 -157 -12 -172 -26 -12 -13
-11 -20 8 -54 43 -75 159 -203 207 -228 16 -8 80 -22 143 -30 144 -20 160 -23
228 -46 31 -10 124 -32 206 -50 83 -17 202 -42 265 -56 63 -13 130 -24 148
-24 31 0 255 90 277 111 10 10 -73 92 -135 133 -203 135 -396 222 -568 258
l-97 20 -95 -32 c-52 -18 -121 -44 -153 -58 l-59 -25 -23 29 c-16 20 -19 30
-11 32 11 2 36 43 36 57 0 9 -145 4 -169 -6z m-114 -88 c10 -10 26 -20 36 -22
17 -4 17 -5 0 -15 -15 -9 -26 -6 -58 22 -35 30 -37 34 -18 34 12 0 30 -9 40
-19z m63 -51 c0 -5 -4 -10 -10 -10 -5 0 -10 5 -10 10 0 6 5 10 10 10 6 0 10
-4 10 -10z m192 -110 c6 0 8 -3 5 -7 -10 -10 -77 29 -77 45 0 9 11 5 31 -12
17 -14 35 -26 41 -26z"/>
<path d="M5995 2150 c-11 -5 -16 -9 -11 -9 5 -1 1 -11 -10 -22 -19 -22 -19
-22 8 -15 15 3 39 11 53 16 23 9 25 12 11 25 -16 17 -22 17 -51 5z"/>
<path d="M5250 2085 c7 -8 17 -15 22 -15 6 0 5 7 -2 15 -7 8 -17 15 -22 15 -6
0 -5 -7 2 -15z"/>
<path d="M1300 2051 c-14 -4 -24 -14 -22 -21 1 -7 -5 -19 -15 -27 -15 -12 -16
-14 -1 -10 15 5 21 -3 33 -48 27 -101 39 -135 46 -135 5 0 9 -9 9 -20 0 -11 5
-20 11 -20 5 0 7 -4 4 -10 -10 -16 14 -50 30 -44 9 4 15 0 15 -8 0 -20 39 -60
51 -52 6 3 15 -8 22 -25 15 -40 42 -43 32 -3 -4 15 -8 34 -9 41 -2 8 -8 17
-14 19 -6 2 -8 10 -5 18 3 8 0 14 -7 14 -7 0 -10 7 -6 15 3 9 0 15 -10 15 -11
0 -15 -6 -11 -20 3 -11 1 -20 -4 -20 -5 0 -9 4 -9 9 0 5 -4 21 -10 36 -8 22
-13 24 -30 15 -16 -9 -20 -8 -20 5 0 9 4 14 10 10 10 -6 50 15 50 28 0 4 -4 6
-9 2 -5 -3 -12 -1 -15 4 -3 5 3 11 14 14 11 3 20 10 20 16 0 8 -6 9 -19 1 -12
-6 -22 -6 -25 -1 -3 5 6 12 19 15 14 4 23 11 20 16 -4 7 -13 7 -23 1 -14 -8
-21 4 -49 72 -18 45 -32 88 -33 95 0 13 -3 13 -40 3z m85 -241 c3 -5 1 -10 -4
-10 -6 0 -11 5 -11 10 0 6 2 10 4 10 3 0 8 -4 11 -10z m15 -70 c0 -5 -4 -10
-10 -10 -5 0 -10 5 -10 10 0 6 5 10 10 10 6 0 10 -4 10 -10z"/>
<path d="M5287 2043 c-4 -3 5 -15 20 -25 34 -23 152 -84 138 -71 -95 86 -141
114 -158 96z"/>
<path d="M915 1980 c-3 -5 -1 -10 4 -10 6 0 11 5 11 10 0 6 -2 10 -4 10 -3 0
-8 -4 -11 -10z"/>
<path d="M947 1971 c5 -20 43 -37 43 -19 0 5 7 2 16 -6 18 -18 34 -21 34 -6 0
6 -7 10 -15 10 -8 0 -15 3 -15 8 0 7 -47 32 -61 32 -4 0 -5 -9 -2 -19z"/>
<path d="M20 1920 c0 -5 5 -10 11 -10 5 0 7 5 4 10 -3 6 -8 10 -11 10 -2 0 -4
-4 -4 -10z"/>
<path d="M130 1755 c0 -2 9 -19 20 -37 11 -18 20 -40 20 -48 0 -8 16 -28 35
-43 26 -21 35 -24 35 -12 0 8 -8 23 -18 33 -11 11 -33 40 -51 65 -29 43 -41
55 -41 42z"/>
<path d="M5310 1649 c0 -5 5 -7 10 -4 6 3 10 8 10 11 0 2 -4 4 -10 4 -5 0 -10
-5 -10 -11z"/>
<path d="M5431 1619 c0 -9 -12 -22 -26 -29 -23 -12 -24 -15 -10 -29 12 -12 19
-13 34 -4 10 7 22 9 25 5 4 -3 24 -7 46 -8 36 -2 39 0 30 17 -8 14 -19 18 -50
15 -36 -4 -39 -2 -43 23 -2 14 -5 19 -6 10z"/>
<path d="M365 1590 c3 -5 8 -10 11 -10 2 0 4 5 4 10 0 6 -5 10 -11 10 -5 0 -7
-4 -4 -10z"/>
<path d="M421 1503 c10 -21 34 -55 54 -77 19 -21 35 -44 35 -51 0 -8 6 -20 13
-27 7 -7 16 -21 20 -32 8 -21 -12 -87 -30 -99 -8 -5 -13 -31 -13 -67 0 -39 -5
-64 -15 -74 -8 -8 -15 -19 -15 -25 0 -6 -20 9 -45 35 -25 25 -45 49 -45 55 0
5 -6 9 -13 9 -7 0 -19 8 -27 18 -34 42 -60 82 -60 93 0 7 -11 24 -24 38 -14
14 -48 54 -76 89 -55 67 -69 76 -137 85 l-43 5 0 -739 0 -739 360 0 c349 0
360 1 372 20 7 11 17 20 22 20 5 0 29 16 53 36 43 35 44 38 38 78 -21 134 -61
324 -86 411 -16 55 -33 129 -39 165 -5 36 -19 108 -31 160 -11 52 -23 107 -26
121 -3 18 -15 29 -39 38 -19 7 -34 17 -34 22 0 6 -5 7 -11 4 -7 -5 -8 5 -3 32
4 21 11 40 15 41 5 2 9 10 9 18 0 8 9 14 20 14 11 0 20 4 20 8 0 29 -34 113
-53 133 -13 13 -27 36 -30 50 -4 17 -16 29 -31 33 -15 4 -34 24 -51 53 -48 82
-91 119 -54 46z m146 -545 c-3 -7 -5 -2 -5 12 0 14 2 19 5 13 2 -7 2 -19 0
-25z m-251 -714 l29 -16 -30 7 c-16 3 -34 11 -39 16 -16 15 9 11 40 -7z"/>
<path d="M5550 1500 c0 -5 7 -10 16 -10 8 0 12 5 9 10 -3 6 -10 10 -16 10 -5
0 -9 -4 -9 -10z"/>
<path d="M5610 1470 c-10 -7 -11 -10 -2 -10 7 0 17 -11 22 -24 5 -15 20 -27
39 -31 16 -3 32 -13 35 -21 3 -8 10 -14 16 -14 17 0 42 29 35 40 -3 5 3 10 14
10 12 0 21 4 21 8 0 17 -26 32 -57 32 -26 0 -31 -3 -27 -17 4 -11 3 -14 -3 -7
-7 10 -67 44 -75 44 -2 0 -10 -5 -18 -10z"/>
<path d="M5776 1401 c-3 -5 1 -12 10 -15 22 -8 25 -4 9 11 -8 7 -16 9 -19 4z"/>
<path d="M420 1321 c0 -6 5 -13 10 -16 6 -3 10 1 10 9 0 9 -4 16 -10 16 -5 0
-10 -4 -10 -9z"/>
<path d="M6566 1254 c-21 -20 -20 -30 4 -54 25 -25 26 -40 3 -41 -10 -1 -2 -5
17 -8 l35 -6 -36 -38 c-38 -38 -79 -49 -79 -22 0 19 -21 19 -46 0 -21 -16 -64
-20 -64 -6 0 5 -14 3 -31 -6 -28 -14 -35 -14 -90 7 -33 12 -68 19 -76 16 -9
-4 -24 1 -34 10 -14 12 -22 13 -39 4 -12 -6 -24 -9 -28 -6 -3 3 1 6 8 6 32 0
-8 20 -45 22 -22 2 -43 7 -46 11 -3 4 -18 3 -34 -3 -20 -8 -31 -7 -42 2 -9 7
-44 13 -83 13 -39 0 -66 4 -62 9 3 6 -3 6 -14 1 -10 -5 -30 -9 -44 -10 -14 -1
-32 -4 -40 -8 -8 -3 -49 -18 -90 -32 -115 -40 -273 -117 -259 -126 7 -4 51
-13 98 -20 146 -20 422 -134 593 -245 37 -24 82 -51 100 -60 18 -9 47 -28 63
-41 17 -14 55 -44 87 -66 161 -119 214 -166 327 -287 67 -73 120 -134 118
-136 -2 -2 -74 67 -160 154 -87 86 -174 168 -194 182 -39 26 -46 32 -103 81
-93 80 -382 205 -655 283 -176 51 -256 64 -390 68 -119 3 -120 3 -185 -30 -36
-19 -89 -43 -117 -54 -32 -12 -61 -31 -73 -49 -12 -16 -31 -29 -42 -29 -11 0
-46 -13 -77 -28 -82 -42 -130 -62 -147 -62 -32 0 -282 -119 -289 -138 -3 -8
-1 -20 5 -27 11 -13 -6 -65 -21 -65 -9 0 -19 26 -19 51 0 37 -60 17 -275 -91
l-90 -45 -42 -86 c-43 -86 -43 -87 -27 -124 8 -20 13 -42 11 -48 -3 -7 -8 0
-12 15 -10 40 -28 34 -45 -14 -29 -82 -42 -78 256 -78 166 0 263 4 259 10 -6
10 24 50 38 50 5 0 7 -13 4 -30 l-6 -30 99 0 c91 0 100 2 100 19 0 24 23 43
43 35 9 -3 30 5 49 19 18 13 41 27 51 30 15 6 16 2 11 -21 -9 -36 -22 -49 -69
-66 -37 -13 -21 -15 213 -15 138 -1 252 1 252 3 0 2 -27 14 -60 26 -33 12 -57
27 -54 32 12 20 102 0 148 -32 l45 -30 1035 0 1036 0 -6 113 c-7 149 -23 279
-36 295 -29 35 25 22 150 -34 72 -33 81 -45 59 -81 -5 -7 -4 -13 1 -13 11 0
-3 -85 -18 -112 -6 -10 -10 -40 -10 -68 0 -38 -4 -50 -15 -50 -9 0 -15 -9 -15
-25 l0 -25 165 0 165 0 0 570 c0 498 -2 571 -15 576 -8 4 -15 12 -15 20 0 19
-26 18 -34 -1 -3 -8 -12 -15 -21 -15 -8 0 -15 -4 -15 -10 0 -11 -33 -14 -43
-4 -4 4 -20 8 -37 9 -25 2 -30 -1 -30 -20 0 -21 -2 -22 -25 -12 -17 8 -20 13
-10 15 8 2 15 7 15 12 0 14 -18 21 -25 10 -8 -13 -42 -13 -47 0 -2 7 -20 5
-51 -4 -26 -8 -47 -10 -47 -5 0 5 5 9 10 9 6 0 6 7 -1 19 -12 18 -13 18 -50
-2 -30 -16 -36 -23 -28 -34 9 -10 8 -13 -4 -13 -9 0 -18 4 -22 10 -3 5 -12 7
-20 4 -8 -3 -22 1 -30 10 -15 14 -15 16 -1 16 9 0 16 5 16 10 0 12 -57 13 -62
1 -5 -14 -48 -24 -48 -11 0 8 -9 10 -23 6 -14 -3 -39 2 -61 14 -31 15 -42 17
-57 7 -10 -6 -19 -20 -19 -29 0 -10 -4 -18 -9 -18 -13 0 -21 39 -10 46 19 11
-14 36 -43 32 -15 -3 -28 -1 -28 4 0 15 -19 8 -24 -9 -3 -12 -4 -11 -3 4 2 23
1 24 -35 22 -13 0 -17 -3 -10 -6 6 -2 12 -15 12 -27 0 -17 -6 -22 -30 -24 -29
-2 -43 19 -21 32 9 6 -9 56 -20 56 -10 0 -5 -34 6 -42 12 -9 6 -15 -19 -20
-13 -2 -24 7 -35 29 -18 37 -23 39 -45 17z m-277 -463 c16 -11 5 -33 -42 -83
-28 -30 -42 -34 -52 -18 -3 6 -1 10 4 10 6 0 11 4 11 9 0 12 52 91 59 91 3 0
12 -4 20 -9z m-1117 -33 c-7 -7 -12 -8 -12 -2 0 14 12 26 19 19 2 -3 -1 -11
-7 -17z m-133 -24 c35 -7 40 -27 15 -62 -12 -18 -25 -23 -57 -22 -23 0 -64 -4
-92 -9 -51 -9 -77 -1 -74 23 1 6 -1 19 -6 29 -10 23 1 34 22 21 11 -7 36 -5
82 7 81 21 72 20 110 13z m128 -26 c-7 -4 9 -8 34 -8 26 0 67 -9 91 -20 85
-37 242 -179 231 -207 -3 -8 -9 -11 -12 -6 -3 4 -45 27 -92 50 -48 24 -93 53
-102 66 -11 17 -34 28 -85 40 -86 21 -96 21 -88 2 4 -11 -2 -15 -26 -15 -29 0
-30 1 -24 33 3 17 15 39 26 49 11 9 20 21 20 26 0 15 24 21 32 8 4 -6 2 -14
-5 -18z m-254 -118 c-9 -16 -21 -30 -25 -30 -4 0 -21 -27 -38 -59 -18 -33 -52
-80 -76 -105 -24 -26 -44 -49 -44 -52 0 -3 -11 -17 -25 -32 -14 -15 -25 -24
-25 -20 0 15 26 64 43 81 13 13 15 22 7 37 -11 20 -7 24 86 105 23 19 49 51
58 70 11 23 24 35 37 35 20 0 20 -1 2 -30z m667 -303 c89 -44 130 -86 130
-133 0 -34 -21 -30 -70 11 -24 20 -92 62 -151 93 -60 31 -109 63 -109 71 0 26
108 3 200 -42z m211 -149 c29 -35 61 -68 69 -75 8 -6 12 -15 8 -19 -5 -4 -16
1 -27 10 -10 9 -31 21 -47 25 -15 4 -36 18 -46 32 -19 25 -32 89 -19 89 5 0
32 -28 62 -62z m-923 37 c4 -9 26 -18 48 -21 96 -13 111 -26 47 -43 -100 -25
-179 -39 -185 -32 -12 11 20 49 45 53 17 2 21 9 19 31 -3 29 12 36 26 12z
m-458 -33 c0 -25 -37 -57 -66 -57 -29 -1 -33 29 -7 57 22 25 73 24 73 0z"/>
<path d="M2769 1041 c20 -77 39 -142 42 -146 9 -8 87 154 91 189 3 27 -1 31
-75 62 -44 19 -82 34 -87 34 -4 0 9 -63 29 -139z"/>
<path d="M4940 909 c-41 -4 -101 -13 -133 -20 l-58 -12 2 -45 3 -44 -54 -24
c-30 -13 -62 -23 -70 -23 -24 0 19 28 62 41 21 6 40 18 42 27 9 28 0 56 -19
60 -27 5 -166 -41 -172 -56 -3 -7 -16 -13 -29 -13 -13 0 -44 -10 -69 -22 -47
-23 -65 -56 -65 -120 0 -16 -7 -29 -17 -32 -10 -4 -29 -15 -43 -26 -29 -23
263 95 630 254 30 14 70 30 88 36 17 7 32 16 32 21 0 10 -22 10 -130 -2z"/>
<path d="M4060 631 l-55 -27 -3 -52 c-2 -32 1 -52 7 -52 6 0 11 -7 11 -15 0
-8 2 -15 5 -15 15 0 216 83 221 92 7 12 -22 46 -47 53 -13 5 -41 -10 -89 -44
-38 -28 -72 -51 -76 -51 -3 0 17 26 45 59 47 54 62 82 44 81 -5 -1 -33 -13
-63 -29z"/>
<path d="M3850 315 c-7 -8 -22 -15 -34 -15 -39 0 -46 -18 -28 -66 9 -24 19
-44 22 -44 3 0 19 32 37 70 30 66 31 89 3 55z"/>
<path d="M3723 256 c-13 -6 -23 -14 -23 -18 0 -5 -8 -8 -18 -8 -30 0 -32 -10
-12 -51 11 -21 20 -44 19 -51 0 -7 -5 -1 -11 15 -5 15 -13 27 -18 27 -9 0 -4
-20 29 -108 20 -52 28 -62 45 -60 15 2 22 11 24 33 2 17 12 49 23 72 10 24 19
46 19 51 0 10 -49 113 -53 111 -1 -1 -12 -6 -24 -13z m21 -136 l7 -25 -15 25
c-9 14 -15 32 -15 40 0 13 1 13 8 0 5 -8 12 -26 15 -40z"/>
<path d="M3616 202 c-6 -11 9 -190 17 -198 3 -3 16 -4 28 -2 21 3 21 4 7 19
-16 15 -25 56 -33 138 -4 46 -9 58 -19 43z"/>
<path d="M7381 194 c0 -11 3 -14 6 -6 3 7 2 16 -1 19 -3 4 -6 -2 -5 -13z"/>
<path d="M3546 175 c-10 -8 -24 -16 -30 -18 -6 -2 -2 -31 14 -80 23 -73 26
-77 53 -77 29 0 29 1 23 42 -11 73 -29 148 -35 148 -3 0 -15 -7 -25 -15z"/>
<path d="M2881 164 c0 -11 3 -14 6 -6 3 7 2 16 -1 19 -3 4 -6 -2 -5 -13z"/>
<path d="M3365 113 c-44 -19 -114 -51 -155 -71 l-75 -37 199 -3 c109 -1 201
-1 203 2 8 8 -67 146 -80 145 -6 -1 -48 -17 -92 -36z"/>
<path d="M2705 130 c3 -5 8 -10 11 -10 2 0 4 5 4 10 0 6 -5 10 -11 10 -5 0 -7
-4 -4 -10z"/>
<path d="M1400 39 l-95 -39 108 0 108 0 -3 37 c-2 20 -7 38 -13 39 -5 1 -53
-15 -105 -37z"/>
</g>
</svg>
